<svg xmlns="http://www.w3.org/2000/svg" xmlns:xlink="http://www.w3.org/1999/xlink" width="1080" zoomAndPan="magnify" viewBox="0 0 810 1012.49997" height="1350" preserveAspectRatio="xMidYMid meet" version="1.0"><defs><clipPath id="2daeb5ea4e"><path d="M 220.09375 274.6875 L 543.933594 274.6875 L 543.933594 598.527344 L 220.09375 598.527344 Z M 220.09375 274.6875 " clip-rule="nonzero"/></clipPath></defs><g clip-path="url(#2daeb5ea4e)"><path fill="#03624c" d="M 543.933594 436.605469 C 543.933594 526.035156 471.4375 598.527344 382.011719 598.527344 C 292.585938 598.527344 220.089844 526.035156 220.089844 436.605469 C 220.089844 347.179688 292.585938 274.6875 382.011719 274.6875 C 471.4375 274.6875 543.933594 347.179688 543.933594 436.605469 Z M 543.933594 436.605469 " fill-opacity="1" fill-rule="nonzero"/></g><path fill="#00df82" d="M 506.40625 436.605469 C 506.40625 507.464844 448.96875 564.902344 378.113281 564.902344 C 307.253906 564.902344 249.8125 507.464844 249.8125 436.605469 C 249.8125 365.75 307.253906 308.308594 378.113281 308.308594 C 448.96875 308.308594 506.40625 365.75 506.40625 436.605469 Z M 506.40625 436.605469 " fill-opacity="1" fill-rule="nonzero"/><path fill="#030f0f" d="M 378.113281 564.90625 C 375.652344 564.90625 373.21875 564.820312 370.796875 564.683594 C 438.246094 560.890625 491.777344 505.003906 491.777344 436.605469 C 491.777344 368.207031 438.246094 312.324219 370.796875 308.53125 C 373.21875 308.394531 375.652344 308.308594 378.113281 308.308594 C 448.96875 308.308594 506.40625 365.75 506.40625 436.605469 C 506.40625 507.464844 448.96875 564.902344 378.113281 564.902344 Z M 378.113281 564.90625 " fill-opacity="1" fill-rule="nonzero"/><path fill="#03624c" d="M 462.503906 436.605469 C 462.503906 483.214844 424.71875 521 378.113281 521 C 331.5 521 293.714844 483.214844 293.714844 436.605469 C 293.714844 389.996094 331.503906 352.210938 378.113281 352.210938 C 424.71875 352.210938 462.503906 389.996094 462.503906 436.605469 Z M 462.503906 436.605469 " fill-opacity="1" fill-rule="nonzero"/><path fill="#00df82" d="M 413.742188 398.660156 L 413.742188 386.335938 L 342.476562 386.335938 L 342.476562 398.660156 L 362.242188 398.660156 C 370.667969 398.660156 377.824219 404.125 380.398438 411.691406 L 342.476562 411.691406 L 342.476562 424.015625 L 380.398438 424.015625 C 377.824219 431.578125 370.667969 437.042969 362.242188 437.042969 L 342.476562 437.042969 L 342.476562 449.367188 L 346.445312 449.367188 C 352.488281 449.367188 358.433594 450.9375 363.632812 454.027344 C 373.054688 459.621094 386.421875 471.1875 394.378906 494.023438 L 407.328125 494.023438 C 399.628906 468.96875 386.191406 454.671875 374.929688 446.675781 C 384.183594 442.585938 391.117188 434.179688 393.140625 424.015625 L 413.742188 424.015625 L 413.742188 411.691406 L 393.140625 411.691406 C 392.179688 406.855469 390.085938 402.429688 387.179688 398.660156 Z M 413.742188 398.660156 " fill-opacity="1" fill-rule="nonzero"/></svg>