<svg xmlns="http://www.w3.org/2000/svg" xmlns:xlink="http://www.w3.org/1999/xlink" width="1080" zoomAndPan="magnify" viewBox="0 0 810 1012.49997" height="1350" preserveAspectRatio="xMidYMid meet" version="1.0"><defs><clipPath id="948138b54a"><path d="M 280 498 L 533 498 L 533 708.398438 L 280 708.398438 Z M 280 498 " clip-rule="nonzero"/></clipPath><clipPath id="92e8e6203d"><path d="M 523.539062 449.539062 L 558.183594 449.539062 L 558.183594 484.515625 L 523.539062 484.515625 Z M 523.539062 449.539062 " clip-rule="nonzero"/></clipPath><clipPath id="9cc37f5c86"><path d="M 405 303.601562 L 455 303.601562 L 455 353 L 405 353 Z M 405 303.601562 " clip-rule="nonzero"/></clipPath><clipPath id="4b9c8c645b"><path d="M 251.832031 449.539062 L 286.703125 449.539062 L 286.703125 484.515625 L 251.832031 484.515625 Z M 251.832031 449.539062 " clip-rule="nonzero"/></clipPath><clipPath id="eb7d7593f8"><path d="M 270.324219 411.339844 L 297.503906 411.339844 L 297.503906 438.519531 L 270.324219 438.519531 Z M 270.324219 411.339844 " clip-rule="nonzero"/></clipPath><clipPath id="a818a816c6"><path d="M 283.914062 411.339844 C 276.40625 411.339844 270.324219 417.425781 270.324219 424.929688 C 270.324219 432.433594 276.40625 438.519531 283.914062 438.519531 C 291.417969 438.519531 297.503906 432.433594 297.503906 424.929688 C 297.503906 417.425781 291.417969 411.339844 283.914062 411.339844 " clip-rule="nonzero"/></clipPath><clipPath id="4d03753a81"><path d="M 508.230469 411.339844 L 535.414062 411.339844 L 535.414062 438.519531 L 508.230469 438.519531 Z M 508.230469 411.339844 " clip-rule="nonzero"/></clipPath><clipPath id="a741494744"><path d="M 521.824219 411.339844 C 514.316406 411.339844 508.230469 417.425781 508.230469 424.929688 C 508.230469 432.433594 514.316406 438.519531 521.824219 438.519531 C 529.328125 438.519531 535.414062 432.433594 535.414062 424.929688 C 535.414062 417.425781 529.328125 411.339844 521.824219 411.339844 " clip-rule="nonzero"/></clipPath><clipPath id="9c88033b82"><path d="M 529.46875 453.921875 L 556.652344 453.921875 L 556.652344 481.105469 L 529.46875 481.105469 Z M 529.46875 453.921875 " clip-rule="nonzero"/></clipPath><clipPath id="e6a8c74d13"><path d="M 543.0625 453.921875 C 535.554688 453.921875 529.46875 460.007812 529.46875 467.511719 C 529.46875 475.019531 535.554688 481.105469 543.0625 481.105469 C 550.566406 481.105469 556.652344 475.019531 556.652344 467.511719 C 556.652344 460.007812 550.566406 453.921875 543.0625 453.921875 " clip-rule="nonzero"/></clipPath><clipPath id="d4037cd920"><path d="M 254.792969 453.921875 L 281.976562 453.921875 L 281.976562 481.105469 L 254.792969 481.105469 Z M 254.792969 453.921875 " clip-rule="nonzero"/></clipPath><clipPath id="7f09195a3d"><path d="M 268.386719 453.921875 C 260.878906 453.921875 254.792969 460.007812 254.792969 467.511719 C 254.792969 475.019531 260.878906 481.105469 268.386719 481.105469 C 275.890625 481.105469 281.976562 475.019531 281.976562 467.511719 C 281.976562 460.007812 275.890625 453.921875 268.386719 453.921875 " clip-rule="nonzero"/></clipPath><clipPath id="55106d0b15"><path d="M 412 436.269531 L 439.183594 436.269531 L 439.183594 463.453125 L 412 463.453125 Z M 412 436.269531 " clip-rule="nonzero"/></clipPath><clipPath id="e89d3f5c91"><path d="M 425.589844 436.269531 C 418.085938 436.269531 412 442.355469 412 449.859375 C 412 457.367188 418.085938 463.453125 425.589844 463.453125 C 433.097656 463.453125 439.183594 457.367188 439.183594 449.859375 C 439.183594 442.355469 433.097656 436.269531 425.589844 436.269531 " clip-rule="nonzero"/></clipPath><clipPath id="1bf7fb2b5f"><path d="M 421.878906 359.417969 L 442.761719 359.417969 L 442.761719 380.300781 L 421.878906 380.300781 Z M 421.878906 359.417969 " clip-rule="nonzero"/></clipPath><clipPath id="b00df4ec32"><path d="M 432.320312 359.417969 C 426.554688 359.417969 421.878906 364.09375 421.878906 369.859375 C 421.878906 375.625 426.554688 380.300781 432.320312 380.300781 C 438.089844 380.300781 442.761719 375.625 442.761719 369.859375 C 442.761719 364.09375 438.089844 359.417969 432.320312 359.417969 " clip-rule="nonzero"/></clipPath><clipPath id="12536beb3c"><path d="M 369.203125 353.121094 L 396.382812 353.121094 L 396.382812 380.300781 L 369.203125 380.300781 Z M 369.203125 353.121094 " clip-rule="nonzero"/></clipPath><clipPath id="c835f4b530"><path d="M 382.792969 353.121094 C 375.285156 353.121094 369.203125 359.203125 369.203125 366.710938 C 369.203125 374.21875 375.285156 380.300781 382.792969 380.300781 C 390.300781 380.300781 396.382812 374.21875 396.382812 366.710938 C 396.382812 359.203125 390.300781 353.121094 382.792969 353.121094 " clip-rule="nonzero"/></clipPath><clipPath id="b62524f910"><path d="M 461.789062 341.609375 L 488.96875 341.609375 L 488.96875 368.792969 L 461.789062 368.792969 Z M 461.789062 341.609375 " clip-rule="nonzero"/></clipPath><clipPath id="630981511f"><path d="M 475.378906 341.609375 C 467.871094 341.609375 461.789062 347.691406 461.789062 355.199219 C 461.789062 362.707031 467.871094 368.792969 475.378906 368.792969 C 482.882812 368.792969 488.96875 362.707031 488.96875 355.199219 C 488.96875 347.691406 482.882812 341.609375 475.378906 341.609375 " clip-rule="nonzero"/></clipPath><clipPath id="105389bbfa"><path d="M 360.070312 309.042969 L 388.859375 309.042969 L 388.859375 337.832031 L 360.070312 337.832031 Z M 360.070312 309.042969 " clip-rule="nonzero"/></clipPath><clipPath id="e095ced608"><path d="M 374.464844 309.042969 C 366.515625 309.042969 360.070312 315.488281 360.070312 323.4375 C 360.070312 331.386719 366.515625 337.832031 374.464844 337.832031 C 382.414062 337.832031 388.859375 331.386719 388.859375 323.4375 C 388.859375 315.488281 382.414062 309.042969 374.464844 309.042969 " clip-rule="nonzero"/></clipPath><clipPath id="a263023ca0"><path d="M 361.675781 405.460938 L 402.019531 405.460938 L 402.019531 445.800781 L 361.675781 445.800781 Z M 361.675781 405.460938 " clip-rule="nonzero"/></clipPath><clipPath id="c228d8c77d"><path d="M 381.847656 405.460938 C 370.707031 405.460938 361.675781 414.492188 361.675781 425.628906 C 361.675781 436.769531 370.707031 445.800781 381.847656 445.800781 C 392.988281 445.800781 402.019531 436.769531 402.019531 425.628906 C 402.019531 414.492188 392.988281 405.460938 381.847656 405.460938 " clip-rule="nonzero"/></clipPath><clipPath id="5dad48a644"><path d="M 288.757812 360.132812 L 329.101562 360.132812 L 329.101562 400.472656 L 288.757812 400.472656 Z M 288.757812 360.132812 " clip-rule="nonzero"/></clipPath><clipPath id="1902be083f"><path d="M 308.929688 360.132812 C 297.789062 360.132812 288.757812 369.160156 288.757812 380.300781 C 288.757812 391.441406 297.789062 400.472656 308.929688 400.472656 C 320.070312 400.472656 329.101562 391.441406 329.101562 380.300781 C 329.101562 369.160156 320.070312 360.132812 308.929688 360.132812 " clip-rule="nonzero"/></clipPath><clipPath id="729fa5d246"><path d="M 437.195312 384.589844 L 477.535156 384.589844 L 477.535156 424.929688 L 437.195312 424.929688 Z M 437.195312 384.589844 " clip-rule="nonzero"/></clipPath><clipPath id="f4372ccbd6"><path d="M 457.363281 384.589844 C 446.222656 384.589844 437.195312 393.621094 437.195312 404.757812 C 437.195312 415.898438 446.222656 424.929688 457.363281 424.929688 C 468.503906 424.929688 477.535156 415.898438 477.535156 404.757812 C 477.535156 393.621094 468.503906 384.589844 457.363281 384.589844 " clip-rule="nonzero"/></clipPath><clipPath id="0b2858ae6c"><path d="M 409.277344 309.042969 L 449.617188 309.042969 L 449.617188 349.382812 L 409.277344 349.382812 Z M 409.277344 309.042969 " clip-rule="nonzero"/></clipPath><clipPath id="cff8233047"><path d="M 429.449219 309.042969 C 418.308594 309.042969 409.277344 318.074219 409.277344 329.214844 C 409.277344 340.351562 418.308594 349.382812 429.449219 349.382812 C 440.585938 349.382812 449.617188 340.351562 449.617188 329.214844 C 449.617188 318.074219 440.585938 309.042969 429.449219 309.042969 " clip-rule="nonzero"/></clipPath><clipPath id="3920001103"><path d="M 377.921875 483.3125 L 432.320312 483.3125 L 432.320312 537.714844 L 377.921875 537.714844 Z M 377.921875 483.3125 " clip-rule="nonzero"/></clipPath><clipPath id="b835c1f28d"><path d="M 405.121094 483.3125 C 390.097656 483.3125 377.921875 495.492188 377.921875 510.515625 C 377.921875 525.539062 390.097656 537.714844 405.121094 537.714844 C 420.144531 537.714844 432.320312 525.539062 432.320312 510.515625 C 432.320312 495.492188 420.144531 483.3125 405.121094 483.3125 " clip-rule="nonzero"/></clipPath><clipPath id="a68dc02340"><path d="M 453.695312 443.730469 L 508.09375 443.730469 L 508.09375 498.132812 L 453.695312 498.132812 Z M 453.695312 443.730469 " clip-rule="nonzero"/></clipPath><clipPath id="1c039b8bc7"><path d="M 480.894531 443.730469 C 465.871094 443.730469 453.695312 455.910156 453.695312 470.933594 C 453.695312 485.957031 465.871094 498.132812 480.894531 498.132812 C 495.917969 498.132812 508.09375 485.957031 508.09375 470.933594 C 508.09375 455.910156 495.917969 443.730469 480.894531 443.730469 " clip-rule="nonzero"/></clipPath><clipPath id="e4157212c7"><path d="M 307.277344 443.730469 L 361.675781 443.730469 L 361.675781 498.132812 L 307.277344 498.132812 Z M 307.277344 443.730469 " clip-rule="nonzero"/></clipPath><clipPath id="77c93a32f1"><path d="M 334.476562 443.730469 C 319.453125 443.730469 307.277344 455.910156 307.277344 470.933594 C 307.277344 485.957031 319.453125 498.132812 334.476562 498.132812 C 349.5 498.132812 361.675781 485.957031 361.675781 470.933594 C 361.675781 455.910156 349.5 443.730469 334.476562 443.730469 " clip-rule="nonzero"/></clipPath><clipPath id="28c2f9cf02"><path d="M 405.121094 387.507812 L 426.003906 387.507812 L 426.003906 408.390625 L 405.121094 408.390625 Z M 405.121094 387.507812 " clip-rule="nonzero"/></clipPath><clipPath id="ae84f1e53d"><path d="M 415.5625 387.507812 C 409.796875 387.507812 405.121094 392.179688 405.121094 397.949219 C 405.121094 403.714844 409.796875 408.390625 415.5625 408.390625 C 421.332031 408.390625 426.003906 403.714844 426.003906 397.949219 C 426.003906 392.179688 421.332031 387.507812 415.5625 387.507812 " clip-rule="nonzero"/></clipPath><clipPath id="32ca85a7f4"><path d="M 340.792969 378.136719 L 361.675781 378.136719 L 361.675781 399.023438 L 340.792969 399.023438 Z M 340.792969 378.136719 " clip-rule="nonzero"/></clipPath><clipPath id="9cf3541caa"><path d="M 351.234375 378.136719 C 345.46875 378.136719 340.792969 382.8125 340.792969 388.582031 C 340.792969 394.347656 345.46875 399.023438 351.234375 399.023438 C 357 399.023438 361.675781 394.347656 361.675781 388.582031 C 361.675781 382.8125 357 378.136719 351.234375 378.136719 " clip-rule="nonzero"/></clipPath><clipPath id="3dc3db0590"><path d="M 319.148438 405.460938 L 340.03125 405.460938 L 340.03125 426.34375 L 319.148438 426.34375 Z M 319.148438 405.460938 " clip-rule="nonzero"/></clipPath><clipPath id="32a8b98d72"><path d="M 329.589844 405.460938 C 323.824219 405.460938 319.148438 410.136719 319.148438 415.902344 C 319.148438 421.667969 323.824219 426.34375 329.589844 426.34375 C 335.359375 426.34375 340.03125 421.667969 340.03125 415.902344 C 340.03125 410.136719 335.359375 405.460938 329.589844 405.460938 " clip-rule="nonzero"/></clipPath><clipPath id="ec3f39c37b"><path d="M 335.203125 342.679688 L 356.085938 342.679688 L 356.085938 363.5625 L 335.203125 363.5625 Z M 335.203125 342.679688 " clip-rule="nonzero"/></clipPath><clipPath id="2e5108e344"><path d="M 345.644531 342.679688 C 339.875 342.679688 335.203125 347.351562 335.203125 353.121094 C 335.203125 358.886719 339.875 363.5625 345.644531 363.5625 C 351.410156 363.5625 356.085938 358.886719 356.085938 353.121094 C 356.085938 347.351562 351.410156 342.679688 345.644531 342.679688 " clip-rule="nonzero"/></clipPath><clipPath id="0760ed94bd"><path d="M 489.246094 378.136719 L 510.128906 378.136719 L 510.128906 399.023438 L 489.246094 399.023438 Z M 489.246094 378.136719 " clip-rule="nonzero"/></clipPath><clipPath id="d03da707da"><path d="M 499.6875 378.136719 C 493.917969 378.136719 489.246094 382.8125 489.246094 388.582031 C 489.246094 394.347656 493.917969 399.023438 499.6875 399.023438 C 505.453125 399.023438 510.128906 394.347656 510.128906 388.582031 C 510.128906 382.8125 505.453125 378.136719 499.6875 378.136719 " clip-rule="nonzero"/></clipPath><clipPath id="53ff91aa6b"><path d="M 367.667969 312.925781 L 381.71875 312.925781 L 381.71875 333.535156 L 367.667969 333.535156 Z M 367.667969 312.925781 " clip-rule="nonzero"/></clipPath><clipPath id="0a3c607de1"><path d="M 374.695312 357.15625 L 388.75 357.15625 L 388.75 377.765625 L 374.695312 377.765625 Z M 374.695312 357.15625 " clip-rule="nonzero"/></clipPath><clipPath id="c157a4cfd6"><path d="M 467.402344 345.304688 L 481.453125 345.304688 L 481.453125 365.914062 L 467.402344 365.914062 Z M 467.402344 345.304688 " clip-rule="nonzero"/></clipPath><clipPath id="7cad7b5152"><path d="M 416.855469 439.53125 L 430.910156 439.53125 L 430.910156 460.140625 L 416.855469 460.140625 Z M 416.855469 439.53125 " clip-rule="nonzero"/></clipPath><clipPath id="55c54f137d"><path d="M 534.6875 456.820312 L 548.738281 456.820312 L 548.738281 477.429688 L 534.6875 477.429688 Z M 534.6875 456.820312 " clip-rule="nonzero"/></clipPath><clipPath id="e70a4a33d2"><path d="M 513.78125 415.675781 L 527.835938 415.675781 L 527.835938 436.285156 L 513.78125 436.285156 Z M 513.78125 415.675781 " clip-rule="nonzero"/></clipPath><clipPath id="5680f3046a"><path d="M 276.777344 415.675781 L 290.832031 415.675781 L 290.832031 436.285156 L 276.777344 436.285156 Z M 276.777344 415.675781 " clip-rule="nonzero"/></clipPath><clipPath id="652a85647b"><path d="M 260.445312 456.820312 L 274.496094 456.820312 L 274.496094 477.429688 L 260.445312 477.429688 Z M 260.445312 456.820312 " clip-rule="nonzero"/></clipPath><clipPath id="0901ad2022"><path d="M 420.804688 312.925781 L 440.949219 312.925781 L 440.949219 342.90625 L 420.804688 342.90625 Z M 420.804688 312.925781 " clip-rule="nonzero"/></clipPath><clipPath id="08234dbb56"><path d="M 447.167969 392.183594 L 467.3125 392.183594 L 467.3125 422.164062 L 447.167969 422.164062 Z M 447.167969 392.183594 " clip-rule="nonzero"/></clipPath><clipPath id="e0fa83c67b"><path d="M 300.261719 365.984375 L 320.402344 365.984375 L 320.402344 395.964844 L 300.261719 395.964844 Z M 300.261719 365.984375 " clip-rule="nonzero"/></clipPath><clipPath id="f73da07d8e"><path d="M 371.613281 411.140625 L 391.753906 411.140625 L 391.753906 441.117188 L 371.613281 441.117188 Z M 371.613281 411.140625 " clip-rule="nonzero"/></clipPath><clipPath id="59a9d7cbcb"><path d="M 466.425781 449.871094 L 496.40625 449.871094 L 496.40625 493.902344 L 466.425781 493.902344 Z M 466.425781 449.871094 " clip-rule="nonzero"/></clipPath><clipPath id="a789fb1c7e"><path d="M 391.84375 489.910156 L 421.824219 489.910156 L 421.824219 533.941406 L 391.84375 533.941406 Z M 391.84375 489.910156 " clip-rule="nonzero"/></clipPath><clipPath id="2031ca7f4a"><path d="M 317.265625 449.871094 L 347.246094 449.871094 L 347.246094 493.902344 L 317.265625 493.902344 Z M 317.265625 449.871094 " clip-rule="nonzero"/></clipPath><clipPath id="b916587a50"><path d="M 339.859375 346.574219 L 348.757812 346.574219 L 348.757812 359.222656 L 339.859375 359.222656 Z M 339.859375 346.574219 " clip-rule="nonzero"/></clipPath><clipPath id="3173a7804b"><path d="M 347.355469 382.898438 L 356.253906 382.898438 L 356.253906 395.546875 L 347.355469 395.546875 Z M 347.355469 382.898438 " clip-rule="nonzero"/></clipPath><clipPath id="6c799ec3cf"><path d="M 325.222656 409.480469 L 334.125 409.480469 L 334.125 422.128906 L 325.222656 422.128906 Z M 325.222656 409.480469 " clip-rule="nonzero"/></clipPath><clipPath id="63ae42cda5"><path d="M 411.195312 392.183594 L 420.097656 392.183594 L 420.097656 404.832031 L 411.195312 404.832031 Z M 411.195312 392.183594 " clip-rule="nonzero"/></clipPath><clipPath id="55394b003d"><path d="M 497.675781 382.898438 L 506.578125 382.898438 L 506.578125 395.546875 L 497.675781 395.546875 Z M 497.675781 382.898438 " clip-rule="nonzero"/></clipPath><clipPath id="29d8686c25"><path d="M 427.953125 363.4375 L 436.855469 363.4375 L 436.855469 376.085938 L 427.953125 376.085938 Z M 427.953125 363.4375 " clip-rule="nonzero"/></clipPath></defs><g clip-path="url(#948138b54a)"><path fill="#00df82" d="M 466.695312 603.246094 C 438.566406 619.246094 427.761719 672.324219 459.710938 708.3125 L 353.414062 708.3125 C 385.363281 672.324219 374.558594 619.242188 346.425781 603.246094 C 302.972656 578.53125 279.277344 533.726562 280.695312 498.832031 C 283.703125 499.011719 297.546875 498.664062 302.691406 517.183594 C 310.171875 544.121094 338.789062 564.804688 350.792969 567.207031 C 336.28125 558.40625 314.316406 530.429688 330.03125 520.761719 C 350.578125 545.746094 405.910156 550.167969 405.910156 625.199219 C 405.910156 630.5 406.152344 635.910156 406.566406 641.300781 C 406.980469 635.910156 407.222656 630.5 407.222656 625.199219 C 407.222656 550.167969 462.554688 545.746094 483.101562 520.761719 C 498.820312 530.429688 476.851562 558.40625 462.339844 567.207031 C 474.347656 564.804688 502.960938 544.125 510.445312 517.183594 C 515.585938 498.664062 529.433594 499.011719 532.441406 498.832031 C 533.84375 533.726562 510.152344 578.53125 466.695312 603.246094 Z M 466.695312 603.246094 " fill-opacity="1" fill-rule="nonzero"/></g><path fill="#00df82" d="M 411.984375 516.5 C 412.832031 517.308594 413.261719 518.390625 413.261719 519.714844 C 413.261719 521.070312 412.824219 522.25 411.964844 523.210938 C 411.105469 524.164062 409.90625 524.792969 408.402344 525.070312 L 408.210938 525.105469 L 408.210938 514.464844 L 408.425781 514.535156 C 409.957031 515.046875 411.15625 515.710938 411.984375 516.5 Z M 401.191406 497.8125 C 400.347656 498.695312 399.917969 499.894531 399.917969 501.371094 C 399.917969 502.695312 400.328125 503.78125 401.132812 504.609375 C 401.925781 505.421875 403.085938 506.09375 404.582031 506.605469 L 404.796875 506.679688 L 404.796875 496.164062 L 404.613281 496.1875 C 403.183594 496.386719 402.035156 496.933594 401.191406 497.8125 Z M 440.941406 510.628906 C 440.941406 529.628906 425.550781 545.03125 406.566406 545.03125 C 387.582031 545.03125 372.1875 529.625 372.1875 510.628906 C 372.1875 491.628906 387.582031 476.226562 406.566406 476.226562 C 425.550781 476.226562 440.941406 491.632812 440.941406 510.628906 Z M 421.40625 519.363281 C 421.40625 516.726562 420.789062 514.628906 419.570312 513.125 C 418.347656 511.617188 416.886719 510.511719 415.230469 509.84375 C 413.554688 509.167969 411.230469 508.457031 408.332031 507.71875 L 408.210938 507.6875 L 408.210938 496.304688 L 408.417969 496.371094 C 409.570312 496.730469 410.511719 497.34375 411.210938 498.203125 C 411.878906 499.027344 412.285156 500 412.425781 501.09375 L 420.921875 501.09375 C 420.625 497.808594 419.382812 495.191406 417.222656 493.3125 C 415.023438 491.398438 412.039062 490.273438 408.355469 489.960938 L 408.207031 489.949219 L 408.207031 485.230469 L 404.796875 485.230469 L 404.796875 489.949219 L 404.648438 489.960938 C 400.847656 490.269531 397.707031 491.496094 395.316406 493.601562 C 392.929688 495.703125 391.71875 498.453125 391.71875 501.777344 C 391.71875 504.417969 392.335938 506.523438 393.550781 508.046875 C 394.773438 509.574219 396.242188 510.699219 397.925781 511.386719 C 399.617188 512.078125 401.890625 512.78125 404.675781 513.480469 L 404.796875 513.511719 L 404.796875 524.996094 L 404.601562 524.953125 C 401.9375 524.363281 400.445312 522.65625 400.167969 519.875 L 391.722656 519.875 C 391.832031 523.164062 393.050781 525.808594 395.339844 527.742188 C 397.675781 529.714844 400.804688 530.890625 404.648438 531.238281 L 404.796875 531.253906 L 404.796875 536.027344 L 408.207031 536.027344 L 408.207031 531.304688 L 408.359375 531.292969 C 411.046875 531.101562 413.410156 530.429688 415.382812 529.296875 C 417.355469 528.171875 418.867188 526.714844 419.878906 524.976562 C 420.890625 523.238281 421.40625 521.347656 421.40625 519.363281 Z M 421.40625 519.363281 " fill-opacity="1" fill-rule="nonzero"/><path fill="#00df82" d="M 484.019531 476.785156 C 484.863281 477.59375 485.292969 478.675781 485.292969 480 C 485.292969 481.359375 484.855469 482.535156 483.996094 483.496094 C 483.140625 484.453125 481.941406 485.082031 480.433594 485.355469 L 480.242188 485.390625 L 480.242188 474.75 L 480.457031 474.820312 C 481.992188 475.332031 483.1875 475.992188 484.019531 476.785156 Z M 473.226562 458.097656 C 472.382812 458.980469 471.953125 460.179688 471.953125 461.65625 C 471.953125 462.980469 472.363281 464.066406 473.164062 464.890625 C 473.957031 465.703125 475.117188 466.378906 476.613281 466.890625 L 476.828125 466.960938 L 476.828125 456.445312 L 476.644531 456.472656 C 475.214844 456.671875 474.066406 457.21875 473.226562 458.097656 Z M 512.976562 470.917969 C 512.976562 489.917969 497.582031 505.320312 478.597656 505.320312 C 459.609375 505.320312 444.21875 489.914062 444.21875 470.917969 C 444.21875 451.914062 459.609375 436.511719 478.597656 436.511719 C 497.582031 436.511719 512.976562 451.914062 512.976562 470.917969 Z M 493.4375 479.648438 C 493.4375 477.011719 492.820312 474.914062 491.605469 473.410156 C 490.382812 471.902344 488.921875 470.796875 487.261719 470.128906 C 485.585938 469.453125 483.265625 468.738281 480.367188 468.003906 L 480.242188 467.972656 L 480.242188 456.589844 L 480.449219 456.65625 C 481.605469 457.011719 482.542969 457.628906 483.242188 458.488281 C 483.914062 459.3125 484.320312 460.285156 484.457031 461.375 L 492.953125 461.375 C 492.660156 458.089844 491.414062 455.472656 489.257812 453.597656 C 487.054688 451.683594 484.070312 450.554688 480.386719 450.246094 L 480.242188 450.234375 L 480.242188 445.519531 L 476.828125 445.519531 L 476.828125 450.238281 L 476.679688 450.25 C 472.882812 450.554688 469.742188 451.78125 467.347656 453.890625 C 464.960938 455.988281 463.753906 458.738281 463.753906 462.066406 C 463.753906 464.703125 464.367188 466.8125 465.582031 468.332031 C 466.804688 469.859375 468.273438 470.984375 469.957031 471.671875 C 471.652344 472.363281 473.917969 473.070312 476.703125 473.769531 L 476.828125 473.800781 L 476.828125 485.28125 L 476.632812 485.238281 C 473.96875 484.652344 472.476562 482.945312 472.199219 480.164062 L 463.753906 480.164062 C 463.867188 483.449219 465.082031 486.097656 467.375 488.027344 C 469.707031 490.003906 472.839844 491.179688 476.679688 491.527344 L 476.828125 491.539062 L 476.828125 496.316406 L 480.242188 496.316406 L 480.242188 491.597656 L 480.390625 491.585938 C 483.082031 491.390625 485.441406 490.722656 487.417969 489.589844 C 489.386719 488.460938 490.898438 487.007812 491.910156 485.269531 C 492.921875 483.523438 493.4375 481.632812 493.4375 479.648438 Z M 493.4375 479.648438 " fill-opacity="1" fill-rule="nonzero"/><path fill="#00df82" d="M 339.136719 476.785156 C 339.980469 477.59375 340.410156 478.675781 340.410156 480 C 340.410156 481.359375 339.972656 482.535156 339.117188 483.496094 C 338.257812 484.453125 337.054688 485.082031 335.550781 485.355469 L 335.363281 485.390625 L 335.363281 474.75 L 335.574219 474.820312 C 337.105469 475.332031 338.304688 475.992188 339.136719 476.785156 Z M 328.339844 458.097656 C 327.5 458.980469 327.070312 460.179688 327.070312 461.65625 C 327.070312 462.980469 327.480469 464.066406 328.28125 464.890625 C 329.074219 465.703125 330.238281 466.378906 331.730469 466.890625 L 331.945312 466.960938 L 331.945312 456.445312 L 331.761719 456.472656 C 330.332031 456.671875 329.179688 457.21875 328.339844 458.097656 Z M 368.089844 470.917969 C 368.089844 489.917969 352.699219 505.320312 333.714844 505.320312 C 314.730469 505.320312 299.335938 489.914062 299.335938 470.917969 C 299.335938 451.914062 314.730469 436.511719 333.714844 436.511719 C 352.699219 436.511719 368.089844 451.914062 368.089844 470.917969 Z M 348.554688 479.648438 C 348.554688 477.011719 347.9375 474.914062 346.722656 473.410156 C 345.496094 471.902344 344.039062 470.796875 342.378906 470.128906 C 340.703125 469.453125 338.382812 468.738281 335.484375 468.003906 L 335.363281 467.972656 L 335.363281 456.589844 L 335.570312 456.65625 C 336.722656 457.011719 337.660156 457.628906 338.359375 458.488281 C 339.03125 459.3125 339.433594 460.285156 339.574219 461.375 L 348.070312 461.375 C 347.773438 458.089844 346.53125 455.472656 344.375 453.597656 C 342.171875 451.683594 339.1875 450.554688 335.507812 450.246094 L 335.359375 450.234375 L 335.359375 445.519531 L 331.945312 445.519531 L 331.945312 450.238281 L 331.796875 450.25 C 327.996094 450.554688 324.855469 451.78125 322.464844 453.890625 C 320.078125 455.988281 318.871094 458.738281 318.871094 462.066406 C 318.871094 464.703125 319.484375 466.8125 320.699219 468.332031 C 321.921875 469.859375 323.394531 470.984375 325.074219 471.671875 C 326.769531 472.363281 329.039062 473.070312 331.824219 473.769531 L 331.945312 473.800781 L 331.945312 485.28125 L 331.75 485.238281 C 329.085938 484.652344 327.597656 482.945312 327.316406 480.164062 L 318.875 480.164062 C 318.984375 483.449219 320.199219 486.097656 322.488281 488.027344 C 324.824219 490.003906 327.957031 491.179688 331.796875 491.527344 L 331.945312 491.539062 L 331.945312 496.316406 L 335.359375 496.316406 L 335.359375 491.597656 L 335.507812 491.585938 C 338.199219 491.390625 340.558594 490.722656 342.535156 489.589844 C 344.503906 488.460938 346.015625 487.007812 347.03125 485.269531 C 348.039062 483.523438 348.554688 481.632812 348.554688 479.648438 Z M 348.554688 479.648438 " fill-opacity="1" fill-rule="nonzero"/><path fill="#00df82" d="M 461.949219 409.644531 C 462.550781 410.21875 462.855469 410.984375 462.855469 411.925781 C 462.855469 412.890625 462.542969 413.726562 461.9375 414.410156 C 461.324219 415.089844 460.472656 415.535156 459.402344 415.730469 L 459.269531 415.753906 L 459.269531 408.199219 L 459.417969 408.25 C 460.507812 408.617188 461.363281 409.082031 461.949219 409.644531 Z M 454.285156 396.371094 C 453.683594 397 453.382812 397.847656 453.382812 398.898438 C 453.382812 399.839844 453.671875 400.609375 454.242188 401.195312 C 454.804688 401.773438 455.632812 402.25 456.691406 402.613281 L 456.84375 402.664062 L 456.84375 395.195312 L 456.710938 395.210938 C 455.695312 395.359375 454.878906 395.746094 454.285156 396.371094 Z M 482.515625 405.476562 C 482.515625 418.96875 471.582031 429.910156 458.097656 429.910156 C 444.613281 429.910156 433.679688 418.96875 433.679688 405.476562 C 433.679688 391.980469 444.613281 381.039062 458.097656 381.039062 C 471.582031 381.039062 482.515625 391.980469 482.515625 405.476562 Z M 468.636719 411.679688 C 468.636719 409.804688 468.199219 408.316406 467.339844 407.25 C 466.46875 406.175781 465.433594 405.394531 464.253906 404.917969 C 463.0625 404.4375 461.414062 403.929688 459.355469 403.410156 L 459.273438 403.386719 L 459.273438 395.300781 L 459.417969 395.34375 C 460.238281 395.601562 460.902344 396.039062 461.402344 396.648438 C 461.875 397.234375 462.164062 397.921875 462.261719 398.699219 L 468.296875 398.699219 C 468.085938 396.367188 467.207031 394.507812 465.675781 393.175781 C 464.109375 391.8125 461.992188 391.015625 459.375 390.796875 L 459.273438 390.789062 L 459.273438 387.4375 L 456.84375 387.4375 L 456.84375 390.789062 L 456.738281 390.800781 C 454.039062 391.019531 451.808594 391.886719 450.109375 393.382812 C 448.414062 394.875 447.554688 396.828125 447.554688 399.191406 C 447.554688 401.066406 447.992188 402.5625 448.855469 403.640625 C 449.726562 404.726562 450.769531 405.527344 451.960938 406.015625 C 453.167969 406.507812 454.777344 407.007812 456.753906 407.503906 L 456.839844 407.527344 L 456.839844 415.683594 L 456.699219 415.652344 C 454.808594 415.234375 453.75 414.019531 453.554688 412.042969 L 447.558594 412.042969 C 447.640625 414.382812 448.5 416.257812 450.128906 417.628906 C 451.785156 419.035156 454.007812 419.871094 456.738281 420.117188 L 456.84375 420.125 L 456.84375 423.515625 L 459.269531 423.515625 L 459.269531 420.164062 L 459.371094 420.15625 C 461.28125 420.019531 462.960938 419.542969 464.363281 418.738281 C 465.761719 417.933594 466.835938 416.902344 467.554688 415.667969 C 468.273438 414.429688 468.636719 413.085938 468.636719 411.679688 Z M 468.636719 411.679688 " fill-opacity="1" fill-rule="nonzero"/><path fill="#00df82" d="M 386.058594 429.492188 C 386.664062 430.070312 386.96875 430.835938 386.96875 431.777344 C 386.96875 432.742188 386.65625 433.578125 386.046875 434.261719 C 385.433594 434.941406 384.585938 435.382812 383.511719 435.582031 L 383.378906 435.605469 L 383.378906 428.050781 L 383.527344 428.101562 C 384.621094 428.464844 385.472656 428.933594 386.058594 429.492188 Z M 378.398438 416.222656 C 377.796875 416.851562 377.492188 417.699219 377.492188 418.746094 C 377.492188 419.6875 377.785156 420.460938 378.355469 421.046875 C 378.917969 421.625 379.742188 422.101562 380.804688 422.464844 L 380.957031 422.515625 L 380.957031 415.042969 L 380.824219 415.0625 C 379.808594 415.210938 378.992188 415.597656 378.398438 416.222656 Z M 406.628906 425.328125 C 406.628906 438.820312 395.695312 449.761719 382.210938 449.761719 C 368.726562 449.761719 357.792969 438.820312 357.792969 425.328125 C 357.792969 411.832031 368.726562 400.890625 382.210938 400.890625 C 395.695312 400.890625 406.628906 411.828125 406.628906 425.328125 Z M 392.75 431.53125 C 392.75 429.65625 392.3125 428.167969 391.449219 427.097656 C 390.582031 426.027344 389.542969 425.246094 388.367188 424.769531 C 387.175781 424.289062 385.527344 423.78125 383.46875 423.257812 L 383.382812 423.238281 L 383.382812 415.148438 L 383.53125 415.195312 C 384.351562 415.453125 385.015625 415.890625 385.511719 416.496094 C 385.988281 417.082031 386.277344 417.773438 386.375 418.550781 L 392.410156 418.550781 C 392.199219 416.214844 391.316406 414.359375 389.785156 413.023438 C 388.222656 411.664062 386.101562 410.867188 383.488281 410.648438 L 383.382812 410.636719 L 383.382812 407.289062 L 380.957031 407.289062 L 380.957031 410.640625 L 380.851562 410.648438 C 378.152344 410.867188 375.925781 411.738281 374.222656 413.234375 C 372.527344 414.726562 371.667969 416.679688 371.667969 419.039062 C 371.667969 420.914062 372.105469 422.414062 372.972656 423.492188 C 373.839844 424.578125 374.882812 425.378906 376.078125 425.867188 C 377.28125 426.355469 378.894531 426.859375 380.871094 427.355469 L 380.957031 427.378906 L 380.957031 435.53125 L 380.816406 435.5 C 378.925781 435.082031 377.867188 433.871094 377.667969 431.894531 L 371.667969 431.894531 C 371.75 434.230469 372.613281 436.109375 374.238281 437.480469 C 375.898438 438.886719 378.121094 439.722656 380.851562 439.964844 L 380.957031 439.976562 L 380.957031 443.367188 L 383.378906 443.367188 L 383.378906 440.015625 L 383.484375 440.007812 C 385.394531 439.871094 387.070312 439.390625 388.472656 438.585938 C 389.875 437.785156 390.945312 436.753906 391.664062 435.519531 C 392.386719 434.28125 392.75 432.9375 392.75 431.53125 Z M 392.75 431.53125 " fill-opacity="1" fill-rule="nonzero"/><path fill="#00df82" d="M 384.539062 370.007812 C 384.960938 370.410156 385.175781 370.949219 385.175781 371.613281 C 385.175781 372.292969 384.957031 372.878906 384.53125 373.359375 C 384.101562 373.839844 383.503906 374.152344 382.746094 374.292969 L 382.652344 374.308594 L 382.652344 368.988281 L 382.757812 369.023438 C 383.523438 369.28125 384.125 369.613281 384.539062 370.007812 Z M 379.144531 360.664062 C 378.722656 361.105469 378.507812 361.703125 378.507812 362.445312 C 378.507812 363.105469 378.710938 363.648438 379.117188 364.0625 C 379.511719 364.46875 380.089844 364.804688 380.839844 365.058594 L 380.945312 365.097656 L 380.945312 359.839844 L 380.851562 359.855469 C 380.136719 359.953125 379.558594 360.222656 379.144531 360.664062 Z M 399.019531 367.070312 C 399.019531 376.570312 391.320312 384.273438 381.828125 384.273438 C 372.335938 384.273438 364.636719 376.574219 364.636719 367.070312 C 364.636719 357.570312 372.332031 349.867188 381.828125 349.867188 C 391.320312 349.867188 399.019531 357.570312 399.019531 367.070312 Z M 389.25 371.441406 C 389.25 370.121094 388.941406 369.070312 388.332031 368.324219 C 387.722656 367.566406 386.988281 367.015625 386.160156 366.683594 C 385.320312 366.34375 384.160156 365.984375 382.710938 365.621094 L 382.652344 365.605469 L 382.652344 359.914062 L 382.757812 359.945312 C 383.335938 360.125 383.804688 360.433594 384.15625 360.863281 C 384.492188 361.273438 384.695312 361.761719 384.765625 362.308594 L 389.011719 362.308594 C 388.863281 360.667969 388.242188 359.359375 387.164062 358.417969 C 386.058594 357.460938 384.570312 356.898438 382.726562 356.746094 L 382.652344 356.742188 L 382.652344 354.382812 L 380.945312 354.382812 L 380.945312 356.742188 L 380.871094 356.746094 C 378.972656 356.898438 377.402344 357.511719 376.207031 358.566406 C 375.011719 359.617188 374.40625 360.992188 374.40625 362.652344 C 374.40625 363.972656 374.714844 365.027344 375.324219 365.789062 C 375.9375 366.550781 376.667969 367.113281 377.511719 367.457031 C 378.359375 367.804688 379.492188 368.15625 380.886719 368.507812 L 380.945312 368.523438 L 380.945312 374.265625 L 380.851562 374.242188 C 379.519531 373.949219 378.773438 373.09375 378.636719 371.699219 L 374.414062 371.699219 C 374.46875 373.34375 375.078125 374.667969 376.222656 375.632812 C 377.386719 376.621094 378.957031 377.207031 380.875 377.378906 L 380.949219 377.386719 L 380.949219 379.773438 L 382.65625 379.773438 L 382.65625 377.410156 L 382.730469 377.40625 C 384.074219 377.3125 385.253906 376.976562 386.242188 376.410156 C 387.226562 375.84375 387.980469 375.117188 388.488281 374.246094 C 388.992188 373.375 389.25 372.429688 389.25 371.441406 Z M 389.25 371.441406 " fill-opacity="1" fill-rule="nonzero"/><path fill="#00df82" d="M 377.648438 326.488281 C 378.070312 326.890625 378.285156 327.433594 378.285156 328.09375 C 378.285156 328.773438 378.066406 329.363281 377.636719 329.84375 C 377.210938 330.324219 376.609375 330.636719 375.855469 330.773438 L 375.761719 330.792969 L 375.761719 325.472656 L 375.867188 325.507812 C 376.632812 325.765625 377.230469 326.09375 377.648438 326.488281 Z M 372.253906 317.148438 C 371.832031 317.589844 371.617188 318.1875 371.617188 318.925781 C 371.617188 319.585938 371.820312 320.132812 372.222656 320.542969 C 372.621094 320.949219 373.203125 321.285156 373.945312 321.542969 L 374.050781 321.578125 L 374.050781 316.324219 L 373.960938 316.335938 C 373.246094 316.433594 372.671875 316.707031 372.253906 317.148438 Z M 392.125 323.554688 C 392.125 333.054688 384.429688 340.757812 374.933594 340.757812 C 365.441406 340.757812 357.746094 333.054688 357.746094 323.554688 C 357.746094 314.054688 365.441406 306.351562 374.933594 306.351562 C 384.429688 306.351562 392.125 314.054688 392.125 323.554688 Z M 382.355469 327.921875 C 382.355469 326.601562 382.050781 325.554688 381.441406 324.804688 C 380.832031 324.046875 380.097656 323.496094 379.265625 323.164062 C 378.429688 322.828125 377.269531 322.46875 375.820312 322.101562 L 375.761719 322.089844 L 375.761719 316.390625 L 375.867188 316.421875 C 376.441406 316.601562 376.914062 316.910156 377.261719 317.339844 C 377.597656 317.75 377.804688 318.238281 377.871094 318.785156 L 382.117188 318.785156 C 381.972656 317.144531 381.351562 315.832031 380.269531 314.894531 C 379.171875 313.9375 377.679688 313.375 375.835938 313.222656 L 375.761719 313.214844 L 375.761719 310.859375 L 374.054688 310.859375 L 374.054688 313.214844 L 373.980469 313.222656 C 372.082031 313.375 370.511719 313.988281 369.3125 315.042969 C 368.121094 316.09375 367.515625 317.464844 367.515625 319.128906 C 367.515625 320.445312 367.824219 321.503906 368.433594 322.265625 C 369.042969 323.027344 369.78125 323.589844 370.621094 323.933594 C 371.464844 324.28125 372.601562 324.632812 373.996094 324.984375 L 374.054688 324.996094 L 374.054688 330.742188 L 373.957031 330.71875 C 372.628906 330.425781 371.878906 329.570312 371.742188 328.175781 L 367.523438 328.175781 C 367.578125 329.820312 368.183594 331.144531 369.332031 332.109375 C 370.5 333.097656 372.066406 333.683594 373.984375 333.859375 L 374.058594 333.863281 L 374.058594 336.25 L 375.765625 336.25 L 375.765625 333.890625 L 375.839844 333.882812 C 377.179688 333.785156 378.363281 333.449219 379.351562 332.886719 C 380.335938 332.320312 381.089844 331.589844 381.597656 330.722656 C 382.101562 329.859375 382.355469 328.910156 382.355469 327.921875 Z M 382.355469 327.921875 " fill-opacity="1" fill-rule="nonzero"/><path fill="#00df82" d="M 426.527344 452.695312 C 426.953125 453.097656 427.167969 453.640625 427.167969 454.300781 C 427.167969 454.980469 426.949219 455.566406 426.519531 456.046875 C 426.089844 456.53125 425.492188 456.84375 424.738281 456.980469 L 424.644531 457 L 424.644531 451.679688 L 424.75 451.714844 C 425.515625 451.96875 426.113281 452.300781 426.527344 452.695312 Z M 421.132812 443.351562 C 420.714844 443.796875 420.496094 444.394531 420.496094 445.132812 C 420.496094 445.792969 420.703125 446.339844 421.105469 446.75 C 421.503906 447.15625 422.082031 447.492188 422.828125 447.75 L 422.933594 447.785156 L 422.933594 442.53125 L 422.84375 442.539062 C 422.128906 442.640625 421.550781 442.914062 421.132812 443.351562 Z M 441.007812 449.761719 C 441.007812 459.261719 433.3125 466.960938 423.816406 466.960938 C 414.324219 466.960938 406.628906 459.261719 406.628906 449.761719 C 406.628906 440.261719 414.320312 432.558594 423.816406 432.558594 C 433.3125 432.558594 441.007812 440.261719 441.007812 449.761719 Z M 431.238281 454.128906 C 431.238281 452.808594 430.929688 451.761719 430.324219 451.011719 C 429.710938 450.253906 428.980469 449.703125 428.148438 449.371094 C 427.3125 449.03125 426.152344 448.675781 424.703125 448.308594 L 424.644531 448.292969 L 424.644531 442.601562 L 424.75 442.632812 C 425.324219 442.8125 425.796875 443.125 426.144531 443.550781 C 426.480469 443.964844 426.683594 444.449219 426.753906 445 L 431 445 C 430.851562 443.355469 430.234375 442.046875 429.152344 441.109375 C 428.050781 440.152344 426.558594 439.589844 424.71875 439.433594 L 424.644531 439.429688 L 424.644531 437.070312 L 422.9375 437.070312 L 422.9375 439.429688 L 422.863281 439.433594 C 420.964844 439.589844 419.390625 440.203125 418.195312 441.253906 C 417.003906 442.308594 416.398438 443.679688 416.398438 445.34375 C 416.398438 446.660156 416.707031 447.714844 417.316406 448.476562 C 417.925781 449.238281 418.660156 449.804688 419.5 450.148438 C 420.347656 450.492188 421.484375 450.847656 422.875 451.195312 L 422.933594 451.210938 L 422.933594 456.953125 L 422.835938 456.929688 C 421.507812 456.636719 420.757812 455.78125 420.621094 454.390625 L 416.402344 454.390625 C 416.457031 456.03125 417.066406 457.355469 418.210938 458.320312 C 419.375 459.308594 420.945312 459.898438 422.863281 460.070312 L 422.9375 460.074219 L 422.9375 462.460938 L 424.644531 462.460938 L 424.644531 460.101562 L 424.71875 460.097656 C 426.058594 460 427.242188 459.664062 428.230469 459.097656 C 429.214844 458.53125 429.972656 457.808594 430.476562 456.9375 C 430.980469 456.066406 431.238281 455.117188 431.238281 454.128906 Z M 431.238281 454.128906 " fill-opacity="1" fill-rule="nonzero"/><g clip-path="url(#92e8e6203d)"><path fill="#00df82" d="M 543.710938 469.898438 C 544.132812 470.300781 544.347656 470.84375 544.347656 471.503906 C 544.347656 472.183594 544.128906 472.769531 543.699219 473.25 C 543.273438 473.730469 542.671875 474.042969 541.917969 474.183594 L 541.824219 474.203125 L 541.824219 468.882812 L 541.929688 468.917969 C 542.695312 469.171875 543.292969 469.503906 543.710938 469.898438 Z M 538.316406 460.554688 C 537.894531 461 537.679688 461.59375 537.679688 462.335938 C 537.679688 462.996094 537.882812 463.542969 538.285156 463.953125 C 538.683594 464.359375 539.265625 464.695312 540.007812 464.953125 L 540.113281 464.988281 L 540.113281 459.730469 L 540.023438 459.742188 C 539.308594 459.84375 538.730469 460.117188 538.316406 460.554688 Z M 558.1875 466.960938 C 558.1875 476.460938 550.492188 484.164062 540.996094 484.164062 C 531.503906 484.164062 523.808594 476.464844 523.808594 466.960938 C 523.808594 457.464844 531.503906 449.761719 540.996094 449.761719 C 550.492188 449.761719 558.1875 457.464844 558.1875 466.960938 Z M 548.417969 471.332031 C 548.417969 470.011719 548.109375 468.960938 547.503906 468.214844 C 546.894531 467.457031 546.160156 466.90625 545.328125 466.574219 C 544.492188 466.234375 543.332031 465.878906 541.882812 465.511719 L 541.824219 465.496094 L 541.824219 459.804688 L 541.929688 459.835938 C 542.503906 460.015625 542.976562 460.328125 543.324219 460.753906 C 543.660156 461.164062 543.867188 461.652344 543.933594 462.199219 L 548.179688 462.199219 C 548.035156 460.558594 547.414062 459.25 546.332031 458.308594 C 545.230469 457.355469 543.742188 456.789062 541.898438 456.636719 L 541.824219 456.632812 L 541.824219 454.273438 L 540.117188 454.273438 L 540.117188 456.632812 L 540.042969 456.636719 C 538.144531 456.789062 536.574219 457.40625 535.375 458.457031 C 534.183594 459.511719 533.578125 460.882812 533.578125 462.546875 C 533.578125 463.863281 533.886719 464.917969 534.496094 465.679688 C 535.105469 466.441406 535.839844 467.003906 536.679688 467.347656 C 537.527344 467.695312 538.664062 468.050781 540.058594 468.398438 L 540.117188 468.414062 L 540.117188 474.15625 L 540.019531 474.132812 C 538.691406 473.839844 537.941406 472.984375 537.804688 471.59375 L 533.585938 471.59375 C 533.640625 473.234375 534.246094 474.558594 535.394531 475.523438 C 536.5625 476.511719 538.128906 477.097656 540.046875 477.273438 L 540.121094 477.277344 L 540.121094 479.664062 L 541.828125 479.664062 L 541.828125 477.304688 L 541.902344 477.296875 C 543.242188 477.203125 544.425781 476.867188 545.414062 476.300781 C 546.398438 475.734375 547.152344 475.007812 547.660156 474.136719 C 548.160156 473.265625 548.417969 472.320312 548.417969 471.332031 Z M 548.417969 471.332031 " fill-opacity="1" fill-rule="nonzero"/></g><path fill="#00df82" d="M 477.101562 358.265625 C 477.527344 358.667969 477.742188 359.210938 477.742188 359.871094 C 477.742188 360.550781 477.523438 361.136719 477.09375 361.617188 C 476.664062 362.097656 476.066406 362.414062 475.3125 362.550781 L 475.21875 362.570312 L 475.21875 357.25 L 475.324219 357.285156 C 476.089844 357.539062 476.6875 357.871094 477.101562 358.265625 Z M 471.707031 348.921875 C 471.285156 349.367188 471.070312 349.960938 471.070312 350.703125 C 471.070312 351.363281 471.273438 351.910156 471.675781 352.320312 C 472.074219 352.726562 472.652344 353.0625 473.402344 353.320312 L 473.507812 353.355469 L 473.507812 348.097656 L 473.414062 348.109375 C 472.703125 348.210938 472.125 348.484375 471.707031 348.921875 Z M 491.582031 355.332031 C 491.582031 364.832031 483.886719 372.53125 474.390625 372.53125 C 464.898438 372.53125 457.199219 364.832031 457.199219 355.332031 C 457.199219 345.832031 464.898438 338.128906 474.390625 338.128906 C 483.882812 338.128906 491.582031 345.828125 491.582031 355.332031 Z M 481.8125 359.695312 C 481.8125 358.375 481.503906 357.328125 480.894531 356.578125 C 480.285156 355.820312 479.550781 355.269531 478.722656 354.9375 C 477.882812 354.597656 476.722656 354.242188 475.273438 353.875 L 475.214844 353.863281 L 475.214844 348.167969 L 475.320312 348.199219 C 475.898438 348.378906 476.367188 348.6875 476.714844 349.117188 C 477.050781 349.527344 477.257812 350.015625 477.324219 350.5625 L 481.574219 350.5625 C 481.425781 348.917969 480.804688 347.609375 479.722656 346.671875 C 478.621094 345.714844 477.132812 345.152344 475.289062 345 L 475.214844 344.992188 L 475.214844 342.636719 L 473.507812 342.636719 L 473.507812 344.992188 L 473.4375 345 C 471.535156 345.152344 469.964844 345.765625 468.765625 346.820312 C 467.574219 347.871094 466.96875 349.242188 466.96875 350.90625 C 466.96875 352.222656 467.277344 353.277344 467.886719 354.042969 C 468.496094 354.804688 469.230469 355.367188 470.074219 355.710938 C 470.917969 356.058594 472.054688 356.410156 473.449219 356.761719 L 473.507812 356.773438 L 473.507812 362.515625 L 473.414062 362.496094 C 472.082031 362.203125 471.332031 361.347656 471.195312 359.953125 L 466.976562 359.953125 C 467.03125 361.597656 467.640625 362.921875 468.785156 363.886719 C 469.949219 364.871094 471.519531 365.460938 473.4375 365.636719 L 473.511719 365.640625 L 473.511719 368.027344 L 475.21875 368.027344 L 475.21875 365.667969 L 475.292969 365.660156 C 476.632812 365.5625 477.816406 365.226562 478.804688 364.664062 C 479.789062 364.097656 480.542969 363.371094 481.050781 362.5 C 481.554688 361.632812 481.8125 360.6875 481.8125 359.695312 Z M 481.8125 359.695312 " fill-opacity="1" fill-rule="nonzero"/><path fill="#00df82" d="M 417.105469 400.449219 C 417.40625 400.734375 417.558594 401.117188 417.558594 401.589844 C 417.558594 402.070312 417.402344 402.488281 417.097656 402.832031 C 416.792969 403.167969 416.371094 403.390625 415.832031 403.492188 L 415.765625 403.503906 L 415.765625 399.722656 L 415.839844 399.75 C 416.382812 399.933594 416.808594 400.167969 417.105469 400.449219 Z M 413.273438 393.8125 C 412.972656 394.125 412.820312 394.546875 412.820312 395.074219 C 412.820312 395.542969 412.964844 395.933594 413.253906 396.226562 C 413.535156 396.515625 413.945312 396.753906 414.476562 396.9375 L 414.550781 396.960938 L 414.550781 393.226562 L 414.488281 393.238281 C 413.976562 393.304688 413.570312 393.5 413.273438 393.8125 Z M 427.386719 398.363281 C 427.386719 405.113281 421.921875 410.582031 415.175781 410.582031 C 408.433594 410.582031 402.964844 405.113281 402.964844 398.363281 C 402.964844 391.613281 408.433594 386.144531 415.175781 386.144531 C 421.921875 386.144531 427.386719 391.613281 427.386719 398.363281 Z M 420.449219 401.460938 C 420.449219 400.527344 420.230469 399.78125 419.800781 399.25 C 419.363281 398.710938 418.847656 398.320312 418.257812 398.082031 C 417.660156 397.84375 416.835938 397.589844 415.808594 397.328125 L 415.765625 397.316406 L 415.765625 393.273438 L 415.839844 393.296875 C 416.25 393.425781 416.582031 393.644531 416.828125 393.949219 C 417.066406 394.242188 417.210938 394.582031 417.261719 394.972656 L 420.277344 394.972656 C 420.175781 393.804688 419.730469 392.875 418.96875 392.210938 C 418.1875 391.53125 417.128906 391.132812 415.820312 391.019531 L 415.769531 391.015625 L 415.769531 389.335938 L 414.554688 389.335938 L 414.554688 391.015625 L 414.503906 391.019531 C 413.15625 391.125 412.039062 391.5625 411.191406 392.308594 C 410.34375 393.054688 409.914062 394.03125 409.914062 395.214844 C 409.914062 396.152344 410.132812 396.898438 410.566406 397.4375 C 411 397.980469 411.523438 398.382812 412.117188 398.625 C 412.722656 398.871094 413.527344 399.121094 414.515625 399.367188 L 414.558594 399.378906 L 414.558594 403.457031 L 414.488281 403.441406 C 413.546875 403.234375 413.015625 402.628906 412.917969 401.640625 L 409.917969 401.640625 C 409.957031 402.808594 410.390625 403.746094 411.199219 404.433594 C 412.03125 405.132812 413.144531 405.550781 414.507812 405.675781 L 414.558594 405.679688 L 414.558594 407.375 L 415.769531 407.375 L 415.769531 405.699219 L 415.824219 405.699219 C 416.777344 405.628906 417.617188 405.390625 418.316406 404.988281 C 419.015625 404.589844 419.550781 404.070312 419.914062 403.453125 C 420.265625 402.84375 420.449219 402.167969 420.449219 401.460938 Z M 420.449219 401.460938 " fill-opacity="1" fill-rule="nonzero"/><path fill="#00df82" d="M 434.625 372.132812 C 434.925781 372.417969 435.078125 372.804688 435.078125 373.273438 C 435.078125 373.753906 434.921875 374.171875 434.617188 374.511719 C 434.316406 374.855469 433.886719 375.074219 433.351562 375.175781 L 433.285156 375.1875 L 433.285156 371.410156 L 433.359375 371.433594 C 433.902344 371.621094 434.328125 371.851562 434.625 372.132812 Z M 430.789062 365.5 C 430.492188 365.8125 430.339844 366.234375 430.339844 366.761719 C 430.339844 367.230469 430.484375 367.621094 430.769531 367.914062 C 431.050781 368.203125 431.464844 368.441406 431.996094 368.625 L 432.070312 368.648438 L 432.070312 364.914062 L 432.007812 364.925781 C 431.496094 364.992188 431.089844 365.1875 430.789062 365.5 Z M 444.90625 370.050781 C 444.90625 376.800781 439.4375 382.269531 432.695312 382.269531 C 425.953125 382.269531 420.488281 376.800781 420.488281 370.050781 C 420.488281 363.300781 425.953125 357.832031 432.695312 357.832031 C 439.4375 357.832031 444.90625 363.300781 444.90625 370.050781 Z M 437.96875 373.148438 C 437.96875 372.214844 437.75 371.46875 437.320312 370.9375 C 436.882812 370.398438 436.367188 370.007812 435.777344 369.769531 C 435.179688 369.53125 434.355469 369.277344 433.328125 369.015625 L 433.285156 369.003906 L 433.285156 364.960938 L 433.359375 364.984375 C 433.765625 365.113281 434.101562 365.332031 434.347656 365.636719 C 434.585938 365.925781 434.730469 366.269531 434.78125 366.660156 L 437.800781 366.660156 C 437.695312 365.492188 437.25 364.5625 436.484375 363.898438 C 435.707031 363.21875 434.648438 362.820312 433.339844 362.707031 L 433.289062 362.703125 L 433.289062 361.023438 L 432.074219 361.023438 L 432.074219 362.703125 L 432.023438 362.707031 C 430.675781 362.8125 429.558594 363.25 428.710938 363.996094 C 427.863281 364.742188 427.4375 365.71875 427.4375 366.902344 C 427.4375 367.839844 427.65625 368.585938 428.085938 369.125 C 428.519531 369.667969 429.042969 370.070312 429.636719 370.3125 C 430.242188 370.558594 431.046875 370.808594 432.035156 371.054688 L 432.078125 371.066406 L 432.078125 375.144531 L 432.007812 375.128906 C 431.0625 374.921875 430.535156 374.316406 430.4375 373.328125 L 427.4375 373.328125 C 427.476562 374.496094 427.90625 375.429688 428.722656 376.121094 C 429.550781 376.820312 430.664062 377.238281 432.027344 377.359375 L 432.078125 377.367188 L 432.078125 379.0625 L 433.289062 379.0625 L 433.289062 377.386719 L 433.34375 377.382812 C 434.296875 377.316406 435.136719 377.078125 435.835938 376.675781 C 436.535156 376.277344 437.070312 375.757812 437.433594 375.140625 C 437.789062 374.523438 437.96875 373.855469 437.96875 373.148438 Z M 437.96875 373.148438 " fill-opacity="1" fill-rule="nonzero"/><path fill="#00df82" d="M 354.542969 391.429688 C 354.847656 391.714844 355 392.097656 355 392.570312 C 355 393.050781 354.84375 393.46875 354.539062 393.8125 C 354.234375 394.152344 353.808594 394.375 353.273438 394.472656 L 353.207031 394.484375 L 353.207031 390.707031 L 353.28125 390.730469 C 353.824219 390.914062 354.25 391.148438 354.542969 391.429688 Z M 350.710938 384.792969 C 350.414062 385.109375 350.261719 385.53125 350.261719 386.054688 C 350.261719 386.523438 350.40625 386.914062 350.691406 387.207031 C 350.972656 387.496094 351.382812 387.734375 351.914062 387.917969 L 351.992188 387.941406 L 351.992188 384.207031 L 351.925781 384.21875 C 351.417969 384.285156 351.007812 384.480469 350.710938 384.792969 Z M 364.832031 389.34375 C 364.832031 396.09375 359.363281 401.5625 352.621094 401.5625 C 345.875 401.5625 340.410156 396.09375 340.410156 389.34375 C 340.410156 382.597656 345.875 377.125 352.621094 377.125 C 359.363281 377.125 364.832031 382.597656 364.832031 389.34375 Z M 357.890625 392.445312 C 357.890625 391.511719 357.671875 390.761719 357.238281 390.230469 C 356.804688 389.691406 356.285156 389.300781 355.699219 389.066406 C 355.101562 388.824219 354.277344 388.570312 353.25 388.308594 L 353.207031 388.296875 L 353.207031 384.253906 L 353.28125 384.277344 C 353.6875 384.40625 354.023438 384.625 354.269531 384.929688 C 354.507812 385.222656 354.652344 385.566406 354.699219 385.953125 L 357.71875 385.953125 C 357.613281 384.785156 357.171875 383.855469 356.40625 383.191406 C 355.628906 382.511719 354.566406 382.113281 353.257812 382 L 353.207031 381.996094 L 353.207031 380.316406 L 351.996094 380.316406 L 351.996094 381.996094 L 351.945312 382 C 350.597656 382.105469 349.480469 382.542969 348.628906 383.289062 C 347.785156 384.035156 347.355469 385.011719 347.355469 386.195312 C 347.355469 387.132812 347.574219 387.878906 348.003906 388.421875 C 348.441406 388.960938 348.960938 389.363281 349.558594 389.605469 C 350.160156 389.851562 350.964844 390.101562 351.957031 390.351562 L 351.996094 390.359375 L 351.996094 394.441406 L 351.929688 394.425781 C 350.984375 394.21875 350.453125 393.609375 350.359375 392.621094 L 347.359375 392.621094 C 347.398438 393.789062 347.828125 394.726562 348.640625 395.414062 C 349.472656 396.117188 350.585938 396.535156 351.945312 396.65625 L 351.996094 396.660156 L 351.996094 398.355469 L 353.210938 398.355469 L 353.210938 396.679688 L 353.265625 396.679688 C 354.21875 396.609375 355.058594 396.371094 355.757812 395.96875 C 356.457031 395.570312 356.992188 395.050781 357.351562 394.4375 C 357.707031 393.824219 357.890625 393.148438 357.890625 392.445312 Z M 357.890625 392.445312 " fill-opacity="1" fill-rule="nonzero"/><path fill="#00df82" d="M 331.433594 417.839844 C 331.734375 418.128906 331.886719 418.511719 331.886719 418.980469 C 331.886719 419.464844 331.730469 419.882812 331.429688 420.222656 C 331.125 420.5625 330.699219 420.785156 330.164062 420.882812 L 330.09375 420.894531 L 330.09375 417.117188 L 330.167969 417.144531 C 330.710938 417.328125 331.136719 417.558594 331.433594 417.839844 Z M 327.601562 411.203125 C 327.304688 411.519531 327.148438 411.941406 327.148438 412.46875 C 327.148438 412.9375 327.296875 413.328125 327.582031 413.621094 C 327.863281 413.910156 328.273438 414.148438 328.804688 414.332031 L 328.882812 414.355469 L 328.882812 410.621094 L 328.816406 410.628906 C 328.308594 410.699219 327.898438 410.894531 327.601562 411.203125 Z M 341.71875 415.753906 C 341.71875 422.503906 336.253906 427.976562 329.507812 427.976562 C 322.765625 427.976562 317.300781 422.503906 317.300781 415.753906 C 317.300781 409.007812 322.765625 403.535156 329.507812 403.535156 C 336.253906 403.535156 341.71875 409.007812 341.71875 415.753906 Z M 334.777344 418.859375 C 334.777344 417.921875 334.558594 417.175781 334.128906 416.644531 C 333.695312 416.109375 333.175781 415.714844 332.585938 415.480469 C 331.992188 415.242188 331.167969 414.984375 330.136719 414.722656 L 330.09375 414.710938 L 330.09375 410.667969 L 330.167969 410.691406 C 330.574219 410.820312 330.910156 411.039062 331.160156 411.34375 C 331.398438 411.636719 331.542969 411.980469 331.589844 412.367188 L 334.609375 412.367188 C 334.503906 411.203125 334.058594 410.273438 333.296875 409.605469 C 332.515625 408.925781 331.457031 408.527344 330.148438 408.417969 L 330.097656 408.410156 L 330.097656 406.734375 L 328.882812 406.734375 L 328.882812 408.410156 L 328.832031 408.414062 C 327.484375 408.523438 326.367188 408.957031 325.519531 409.707031 C 324.675781 410.449219 324.246094 411.429688 324.246094 412.609375 C 324.246094 413.546875 324.464844 414.296875 324.894531 414.835938 C 325.328125 415.378906 325.851562 415.777344 326.449219 416.019531 C 327.050781 416.265625 327.855469 416.519531 328.84375 416.765625 L 328.886719 416.777344 L 328.886719 420.851562 L 328.820312 420.839844 C 327.871094 420.632812 327.34375 420.023438 327.246094 419.035156 L 324.238281 419.035156 C 324.28125 420.203125 324.710938 421.140625 325.523438 421.828125 C 326.351562 422.53125 327.464844 422.949219 328.828125 423.070312 L 328.878906 423.078125 L 328.878906 424.773438 L 330.09375 424.773438 L 330.09375 423.097656 L 330.144531 423.09375 C 331.097656 423.023438 331.941406 422.785156 332.640625 422.386719 C 333.335938 421.984375 333.871094 421.46875 334.234375 420.851562 C 334.597656 420.234375 334.777344 419.5625 334.777344 418.859375 Z M 334.777344 418.859375 " fill-opacity="1" fill-rule="nonzero"/><path fill="#00df82" d="M 346.65625 354.882812 C 346.957031 355.171875 347.113281 355.554688 347.113281 356.023438 C 347.113281 356.507812 346.957031 356.925781 346.652344 357.265625 C 346.347656 357.605469 345.921875 357.828125 345.382812 357.925781 L 345.316406 357.9375 L 345.316406 354.160156 L 345.390625 354.1875 C 345.9375 354.367188 346.363281 354.601562 346.65625 354.882812 Z M 342.824219 348.246094 C 342.523438 348.5625 342.371094 348.984375 342.371094 349.511719 C 342.371094 349.980469 342.515625 350.371094 342.804688 350.664062 C 343.085938 350.953125 343.496094 351.191406 344.027344 351.375 L 344.105469 351.398438 L 344.105469 347.664062 L 344.039062 347.671875 C 343.53125 347.742188 343.121094 347.933594 342.824219 348.246094 Z M 356.941406 352.796875 C 356.941406 359.546875 351.476562 365.019531 344.734375 365.019531 C 337.988281 365.019531 332.523438 359.546875 332.523438 352.796875 C 332.523438 346.050781 337.988281 340.578125 344.734375 340.578125 C 351.476562 340.578125 356.941406 346.050781 356.941406 352.796875 Z M 350.003906 355.898438 C 350.003906 354.964844 349.785156 354.21875 349.351562 353.6875 C 348.917969 353.148438 348.398438 352.757812 347.808594 352.519531 C 347.214844 352.28125 346.390625 352.023438 345.359375 351.761719 L 345.316406 351.753906 L 345.316406 347.710938 L 345.390625 347.734375 C 345.800781 347.863281 346.132812 348.082031 346.382812 348.386719 C 346.621094 348.679688 346.765625 349.023438 346.8125 349.410156 L 349.832031 349.410156 C 349.726562 348.246094 349.285156 347.316406 348.519531 346.648438 C 347.738281 345.96875 346.679688 345.570312 345.371094 345.460938 L 345.320312 345.453125 L 345.320312 343.777344 L 344.109375 343.777344 L 344.109375 345.453125 L 344.054688 345.457031 C 342.707031 345.566406 341.59375 346 340.742188 346.75 C 339.894531 347.492188 339.464844 348.472656 339.464844 349.652344 C 339.464844 350.589844 339.683594 351.339844 340.117188 351.878906 C 340.550781 352.421875 341.074219 352.820312 341.671875 353.0625 C 342.273438 353.308594 343.078125 353.5625 344.066406 353.808594 L 344.109375 353.820312 L 344.109375 357.894531 L 344.042969 357.882812 C 343.097656 357.675781 342.566406 357.066406 342.46875 356.078125 L 339.46875 356.078125 C 339.507812 357.246094 339.941406 358.183594 340.753906 358.871094 C 341.582031 359.574219 342.695312 359.992188 344.058594 360.113281 L 344.109375 360.121094 L 344.109375 361.816406 L 345.320312 361.816406 L 345.320312 360.140625 L 345.375 360.136719 C 346.332031 360.070312 347.171875 359.828125 347.867188 359.429688 C 348.566406 359.027344 349.105469 358.511719 349.464844 357.894531 C 349.820312 357.277344 350.003906 356.605469 350.003906 355.898438 Z M 350.003906 355.898438 " fill-opacity="1" fill-rule="nonzero"/><path fill="#00df82" d="M 502.980469 391.429688 C 503.285156 391.714844 503.4375 392.097656 503.4375 392.570312 C 503.4375 393.050781 503.28125 393.46875 502.976562 393.8125 C 502.671875 394.152344 502.25 394.375 501.710938 394.472656 L 501.644531 394.484375 L 501.644531 390.707031 L 501.714844 390.730469 C 502.261719 390.914062 502.6875 391.148438 502.980469 391.429688 Z M 499.148438 384.792969 C 498.851562 385.109375 498.699219 385.53125 498.699219 386.054688 C 498.699219 386.523438 498.84375 386.914062 499.128906 387.207031 C 499.410156 387.496094 499.820312 387.734375 500.351562 387.917969 L 500.429688 387.941406 L 500.429688 384.207031 L 500.363281 384.21875 C 499.855469 384.285156 499.445312 384.480469 499.148438 384.792969 Z M 513.265625 389.34375 C 513.265625 396.09375 507.800781 401.5625 501.054688 401.5625 C 494.308594 401.5625 488.84375 396.09375 488.84375 389.34375 C 488.84375 382.597656 494.308594 377.125 501.054688 377.125 C 507.800781 377.125 513.265625 382.597656 513.265625 389.34375 Z M 506.328125 392.445312 C 506.328125 391.511719 506.109375 390.761719 505.675781 390.230469 C 505.242188 389.691406 504.722656 389.300781 504.136719 389.066406 C 503.539062 388.824219 502.714844 388.570312 501.683594 388.308594 L 501.644531 388.296875 L 501.644531 384.253906 L 501.714844 384.277344 C 502.125 384.40625 502.460938 384.625 502.707031 384.929688 C 502.945312 385.222656 503.089844 385.566406 503.136719 385.953125 L 506.15625 385.953125 C 506.050781 384.785156 505.609375 383.855469 504.847656 383.191406 C 504.066406 382.511719 503.003906 382.113281 501.695312 382 L 501.644531 381.996094 L 501.644531 380.316406 L 500.433594 380.316406 L 500.433594 381.996094 L 500.382812 382 C 499.035156 382.105469 497.917969 382.542969 497.066406 383.289062 C 496.222656 384.035156 495.792969 385.011719 495.792969 386.195312 C 495.792969 387.132812 496.011719 387.878906 496.445312 388.421875 C 496.875 388.960938 497.398438 389.363281 497.996094 389.605469 C 498.597656 389.851562 499.402344 390.101562 500.394531 390.351562 L 500.433594 390.359375 L 500.433594 394.441406 L 500.367188 394.425781 C 499.421875 394.21875 498.890625 393.609375 498.792969 392.621094 L 495.796875 392.621094 C 495.835938 393.789062 496.269531 394.726562 497.078125 395.414062 C 497.910156 396.117188 499.023438 396.535156 500.382812 396.65625 L 500.433594 396.660156 L 500.433594 398.355469 L 501.648438 398.355469 L 501.648438 396.679688 L 501.703125 396.679688 C 502.65625 396.609375 503.496094 396.371094 504.195312 395.96875 C 504.894531 395.570312 505.429688 395.050781 505.789062 394.4375 C 506.144531 393.824219 506.328125 393.148438 506.328125 392.445312 Z M 506.328125 392.445312 " fill-opacity="1" fill-rule="nonzero"/><path fill="#00df82" d="M 523.199219 428.597656 C 523.621094 429 523.839844 429.539062 523.839844 430.203125 C 523.839844 430.882812 523.621094 431.46875 523.191406 431.949219 C 522.761719 432.429688 522.164062 432.742188 521.410156 432.882812 L 521.316406 432.898438 L 521.316406 427.578125 L 521.417969 427.613281 C 522.1875 427.871094 522.785156 428.203125 523.199219 428.597656 Z M 517.804688 419.253906 C 517.382812 419.699219 517.167969 420.292969 517.167969 421.03125 C 517.167969 421.695312 517.371094 422.242188 517.777344 422.652344 C 518.175781 423.058594 518.753906 423.394531 519.5 423.648438 L 519.605469 423.6875 L 519.605469 418.429688 L 519.511719 418.445312 C 518.800781 418.539062 518.222656 418.8125 517.804688 419.253906 Z M 537.679688 425.664062 C 537.679688 435.160156 529.984375 442.863281 520.488281 442.863281 C 510.996094 442.863281 503.296875 435.164062 503.296875 425.664062 C 503.296875 416.160156 510.992188 408.460938 520.488281 408.460938 C 529.980469 408.460938 537.679688 416.164062 537.679688 425.664062 Z M 527.910156 430.027344 C 527.910156 428.710938 527.597656 427.660156 526.992188 426.910156 C 526.378906 426.15625 525.648438 425.605469 524.820312 425.273438 C 523.976562 424.933594 522.820312 424.574219 521.371094 424.210938 L 521.3125 424.195312 L 521.3125 418.503906 L 521.417969 418.535156 C 521.992188 418.714844 522.464844 419.023438 522.8125 419.453125 C 523.148438 419.867188 523.351562 420.351562 523.421875 420.898438 L 527.667969 420.898438 C 527.523438 419.257812 526.898438 417.945312 525.820312 417.007812 C 524.71875 416.050781 523.226562 415.488281 521.386719 415.335938 L 521.3125 415.328125 L 521.3125 412.972656 L 519.605469 412.972656 L 519.605469 415.328125 L 519.53125 415.335938 C 517.632812 415.488281 516.0625 416.101562 514.863281 417.15625 C 513.671875 418.207031 513.066406 419.582031 513.066406 421.242188 C 513.066406 422.5625 513.375 423.613281 513.980469 424.375 C 514.59375 425.140625 515.328125 425.703125 516.167969 426.046875 C 517.015625 426.394531 518.152344 426.746094 519.542969 427.097656 L 519.605469 427.109375 L 519.605469 432.851562 L 519.507812 432.832031 C 518.175781 432.539062 517.429688 431.683594 517.292969 430.289062 L 513.070312 430.289062 C 513.128906 431.933594 513.734375 433.257812 514.878906 434.222656 C 516.046875 435.207031 517.613281 435.796875 519.53125 435.96875 L 519.605469 435.976562 L 519.605469 438.363281 L 521.316406 438.363281 L 521.316406 436 L 521.386719 435.996094 C 522.730469 435.898438 523.914062 435.5625 524.902344 434.996094 C 525.886719 434.433594 526.640625 433.710938 527.148438 432.835938 C 527.652344 431.964844 527.910156 431.019531 527.910156 430.027344 Z M 527.910156 430.027344 " fill-opacity="1" fill-rule="nonzero"/><path fill="#00df82" d="M 314.480469 384.492188 C 315.082031 385.066406 315.386719 385.835938 315.386719 386.773438 C 315.386719 387.742188 315.074219 388.578125 314.464844 389.257812 C 313.855469 389.941406 313.003906 390.382812 311.933594 390.582031 L 311.800781 390.605469 L 311.800781 383.050781 L 311.949219 383.101562 C 313.039062 383.464844 313.890625 383.933594 314.480469 384.492188 Z M 306.816406 371.222656 C 306.214844 371.847656 305.914062 372.699219 305.914062 373.746094 C 305.914062 374.6875 306.203125 375.460938 306.773438 376.046875 C 307.335938 376.621094 308.160156 377.101562 309.222656 377.460938 L 309.375 377.511719 L 309.375 370.042969 L 309.242188 370.0625 C 308.226562 370.207031 307.414062 370.59375 306.816406 371.222656 Z M 335.046875 380.324219 C 335.046875 393.820312 324.113281 404.757812 310.628906 404.757812 C 297.144531 404.757812 286.210938 393.820312 286.210938 380.324219 C 286.210938 366.828125 297.144531 355.890625 310.628906 355.890625 C 324.113281 355.886719 335.046875 366.828125 335.046875 380.324219 Z M 321.171875 386.527344 C 321.171875 384.65625 320.730469 383.164062 319.867188 382.097656 C 319 381.027344 317.964844 380.242188 316.785156 379.769531 C 315.59375 379.289062 313.945312 378.777344 311.886719 378.257812 L 311.800781 378.234375 L 311.800781 370.148438 L 311.949219 370.195312 C 312.769531 370.449219 313.433594 370.886719 313.929688 371.496094 C 314.40625 372.082031 314.695312 372.773438 314.792969 373.546875 L 320.828125 373.546875 C 320.617188 371.214844 319.734375 369.355469 318.207031 368.023438 C 316.640625 366.664062 314.523438 365.863281 311.90625 365.644531 L 311.800781 365.636719 L 311.800781 362.289062 L 309.378906 362.289062 L 309.378906 365.640625 L 309.273438 365.648438 C 306.570312 365.867188 304.34375 366.734375 302.640625 368.234375 C 300.945312 369.726562 300.089844 371.675781 300.089844 374.039062 C 300.089844 375.914062 300.527344 377.410156 301.390625 378.492188 C 302.257812 379.578125 303.304688 380.375 304.496094 380.863281 C 305.699219 381.355469 307.3125 381.859375 309.289062 382.355469 L 309.375 382.375 L 309.375 390.53125 L 309.234375 390.5 C 307.34375 390.082031 306.285156 388.867188 306.085938 386.894531 L 300.089844 386.894531 C 300.167969 389.230469 301.03125 391.109375 302.660156 392.480469 C 304.316406 393.886719 306.539062 394.71875 309.269531 394.964844 L 309.375 394.972656 L 309.375 398.367188 L 311.800781 398.367188 L 311.800781 395.011719 L 311.902344 395.003906 C 313.8125 394.867188 315.492188 394.390625 316.894531 393.585938 C 318.292969 392.785156 319.367188 391.75 320.085938 390.515625 C 320.804688 389.277344 321.171875 387.9375 321.171875 386.527344 Z M 321.171875 386.527344 " fill-opacity="1" fill-rule="nonzero"/><g clip-path="url(#9cc37f5c86)"><path fill="#00df82" d="M 433.585938 332.300781 C 434.1875 332.875 434.492188 333.644531 434.492188 334.582031 C 434.492188 335.550781 434.179688 336.386719 433.570312 337.070312 C 432.960938 337.75 432.109375 338.191406 431.039062 338.390625 L 430.902344 338.414062 L 430.902344 330.855469 L 431.050781 330.910156 C 432.144531 331.273438 432.996094 331.738281 433.585938 332.300781 Z M 425.917969 319.03125 C 425.320312 319.660156 425.015625 320.507812 425.015625 321.554688 C 425.015625 322.496094 425.304688 323.269531 425.875 323.855469 C 426.4375 324.433594 427.265625 324.910156 428.324219 325.273438 L 428.476562 325.324219 L 428.476562 317.855469 L 428.347656 317.871094 C 427.332031 318.015625 426.515625 318.40625 425.917969 319.03125 Z M 454.152344 328.132812 C 454.152344 341.625 443.21875 352.566406 429.734375 352.566406 C 416.25 352.566406 405.316406 341.625 405.316406 328.132812 C 405.316406 314.636719 416.25 303.695312 429.734375 303.695312 C 443.21875 303.695312 454.152344 314.636719 454.152344 328.132812 Z M 440.273438 334.335938 C 440.273438 332.460938 439.835938 330.972656 438.976562 329.90625 C 438.105469 328.832031 437.070312 328.050781 435.890625 327.574219 C 434.699219 327.09375 433.050781 326.585938 430.992188 326.066406 L 430.90625 326.042969 L 430.90625 317.957031 L 431.054688 318.003906 C 431.875 318.257812 432.539062 318.699219 433.039062 319.304688 C 433.511719 319.890625 433.800781 320.582031 433.898438 321.355469 L 439.933594 321.355469 C 439.722656 319.023438 438.84375 317.167969 437.308594 315.832031 C 435.746094 314.472656 433.625 313.675781 431.011719 313.457031 L 430.90625 313.445312 L 430.90625 310.09375 L 428.480469 310.09375 L 428.480469 313.445312 L 428.378906 313.457031 C 425.675781 313.675781 423.449219 314.542969 421.75 316.039062 C 420.050781 317.53125 419.195312 319.484375 419.195312 321.847656 C 419.195312 323.722656 419.632812 325.21875 420.496094 326.296875 C 421.363281 327.382812 422.410156 328.183594 423.601562 328.671875 C 424.804688 329.164062 426.417969 329.664062 428.394531 330.160156 L 428.480469 330.183594 L 428.480469 338.339844 L 428.339844 338.308594 C 426.449219 337.890625 425.390625 336.675781 425.191406 334.699219 L 419.195312 334.699219 C 419.273438 337.039062 420.136719 338.914062 421.765625 340.285156 C 423.421875 341.691406 425.644531 342.527344 428.375 342.773438 L 428.480469 342.78125 L 428.480469 346.171875 L 430.902344 346.171875 L 430.902344 342.820312 L 431.007812 342.8125 C 432.917969 342.675781 434.597656 342.199219 436 341.394531 C 437.398438 340.589844 438.472656 339.558594 439.191406 338.324219 C 439.910156 337.089844 440.273438 335.746094 440.273438 334.335938 Z M 440.273438 334.335938 " fill-opacity="1" fill-rule="nonzero"/></g><g clip-path="url(#4b9c8c645b)"><path fill="#00df82" d="M 271.734375 469.898438 C 272.15625 470.300781 272.375 470.84375 272.375 471.503906 C 272.375 472.183594 272.15625 472.769531 271.726562 473.25 C 271.296875 473.730469 270.695312 474.042969 269.941406 474.183594 L 269.847656 474.203125 L 269.847656 468.882812 L 269.953125 468.917969 C 270.714844 469.171875 271.316406 469.503906 271.734375 469.898438 Z M 266.335938 460.554688 C 265.914062 461 265.699219 461.59375 265.699219 462.335938 C 265.699219 462.996094 265.902344 463.542969 266.308594 463.953125 C 266.707031 464.359375 267.285156 464.695312 268.03125 464.953125 L 268.136719 464.988281 L 268.136719 459.730469 L 268.042969 459.742188 C 267.332031 459.84375 266.757812 460.117188 266.335938 460.554688 Z M 286.210938 466.960938 C 286.210938 476.460938 278.515625 484.164062 269.019531 484.164062 C 259.527344 484.164062 251.832031 476.460938 251.832031 466.960938 C 251.832031 457.464844 259.527344 449.761719 269.023438 449.761719 C 278.515625 449.761719 286.210938 457.464844 286.210938 466.960938 Z M 276.441406 471.332031 C 276.441406 470.011719 276.132812 468.960938 275.523438 468.214844 C 274.914062 467.457031 274.179688 466.90625 273.351562 466.574219 C 272.511719 466.234375 271.351562 465.878906 269.90625 465.511719 L 269.847656 465.496094 L 269.847656 459.804688 L 269.953125 459.835938 C 270.527344 460.015625 270.996094 460.328125 271.347656 460.753906 C 271.683594 461.164062 271.886719 461.652344 271.957031 462.199219 L 276.203125 462.199219 C 276.054688 460.558594 275.433594 459.25 274.355469 458.308594 C 273.253906 457.355469 271.761719 456.789062 269.921875 456.636719 L 269.847656 456.632812 L 269.847656 454.273438 L 268.136719 454.273438 L 268.136719 456.632812 L 268.066406 456.636719 C 266.164062 456.789062 264.597656 457.40625 263.398438 458.457031 C 262.203125 459.511719 261.601562 460.882812 261.601562 462.546875 C 261.601562 463.863281 261.910156 464.917969 262.515625 465.679688 C 263.128906 466.441406 263.863281 467.003906 264.703125 467.347656 C 265.550781 467.695312 266.6875 468.050781 268.074219 468.398438 L 268.136719 468.414062 L 268.136719 474.15625 L 268.039062 474.132812 C 266.707031 473.839844 265.960938 472.984375 265.824219 471.59375 L 261.601562 471.59375 C 261.660156 473.234375 262.265625 474.558594 263.410156 475.523438 C 264.578125 476.511719 266.144531 477.097656 268.066406 477.273438 L 268.136719 477.277344 L 268.136719 479.664062 L 269.847656 479.664062 L 269.847656 477.304688 L 269.921875 477.296875 C 271.261719 477.203125 272.445312 476.867188 273.429688 476.300781 C 274.417969 475.734375 275.171875 475.007812 275.679688 474.136719 C 276.1875 473.265625 276.441406 472.320312 276.441406 471.332031 Z M 276.441406 471.332031 " fill-opacity="1" fill-rule="nonzero"/></g><path fill="#00df82" d="M 288.246094 428.261719 C 288.671875 428.664062 288.886719 429.203125 288.886719 429.867188 C 288.886719 430.546875 288.667969 431.136719 288.238281 431.617188 C 287.808594 432.09375 287.210938 432.40625 286.457031 432.546875 L 286.363281 432.5625 L 286.363281 427.242188 L 286.46875 427.277344 C 287.234375 427.535156 287.832031 427.867188 288.246094 428.261719 Z M 282.851562 418.917969 C 282.433594 419.363281 282.214844 419.960938 282.214844 420.695312 C 282.214844 421.359375 282.421875 421.90625 282.824219 422.316406 C 283.222656 422.722656 283.800781 423.058594 284.550781 423.3125 L 284.65625 423.351562 L 284.65625 418.09375 L 284.5625 418.105469 C 283.847656 418.203125 283.269531 418.476562 282.851562 418.917969 Z M 302.726562 425.328125 C 302.726562 434.824219 295.03125 442.53125 285.535156 442.53125 C 276.046875 442.53125 268.347656 434.828125 268.347656 425.328125 C 268.347656 415.828125 276.042969 408.125 285.535156 408.125 C 295.03125 408.125 302.726562 415.824219 302.726562 425.328125 Z M 292.960938 429.691406 C 292.960938 428.371094 292.648438 427.324219 292.042969 426.574219 C 291.429688 425.820312 290.699219 425.265625 289.871094 424.933594 C 289.027344 424.597656 287.871094 424.238281 286.421875 423.871094 L 286.363281 423.855469 L 286.363281 418.164062 L 286.46875 418.195312 C 287.046875 418.375 287.515625 418.683594 287.863281 419.113281 C 288.199219 419.527344 288.402344 420.011719 288.472656 420.558594 L 292.722656 420.558594 C 292.574219 418.917969 291.949219 417.609375 290.871094 416.671875 C 289.769531 415.714844 288.277344 415.148438 286.4375 414.996094 L 286.363281 414.992188 L 286.363281 412.632812 L 284.65625 412.632812 L 284.65625 414.992188 L 284.582031 414.996094 C 282.683594 415.148438 281.113281 415.765625 279.914062 416.820312 C 278.722656 417.871094 278.117188 419.242188 278.117188 420.902344 C 278.117188 422.222656 278.425781 423.277344 279.035156 424.039062 C 279.644531 424.804688 280.378906 425.367188 281.222656 425.710938 C 282.066406 426.054688 283.203125 426.40625 284.597656 426.757812 L 284.65625 426.773438 L 284.65625 432.515625 L 284.5625 432.492188 C 283.226562 432.199219 282.480469 431.34375 282.34375 429.953125 L 278.121094 429.953125 C 278.175781 431.59375 278.785156 432.917969 279.929688 433.886719 C 281.097656 434.871094 282.664062 435.457031 284.582031 435.632812 L 284.65625 435.636719 L 284.65625 438.023438 L 286.363281 438.023438 L 286.363281 435.664062 L 286.4375 435.65625 C 287.777344 435.5625 288.960938 435.226562 289.949219 434.660156 C 290.933594 434.097656 291.691406 433.371094 292.195312 432.496094 C 292.703125 431.628906 292.960938 430.683594 292.960938 429.691406 Z M 292.960938 429.691406 " fill-opacity="1" fill-rule="nonzero"/><g clip-path="url(#eb7d7593f8)"><g clip-path="url(#a818a816c6)"><path fill="#00df82" d="M 270.324219 411.339844 L 297.503906 411.339844 L 297.503906 438.519531 L 270.324219 438.519531 Z M 270.324219 411.339844 " fill-opacity="1" fill-rule="nonzero"/></g></g><g clip-path="url(#4d03753a81)"><g clip-path="url(#a741494744)"><path fill="#00df82" d="M 508.230469 411.339844 L 535.414062 411.339844 L 535.414062 438.519531 L 508.230469 438.519531 Z M 508.230469 411.339844 " fill-opacity="1" fill-rule="nonzero"/></g></g><g clip-path="url(#9c88033b82)"><g clip-path="url(#e6a8c74d13)"><path fill="#00df82" d="M 529.46875 453.921875 L 556.652344 453.921875 L 556.652344 481.105469 L 529.46875 481.105469 Z M 529.46875 453.921875 " fill-opacity="1" fill-rule="nonzero"/></g></g><g clip-path="url(#d4037cd920)"><g clip-path="url(#7f09195a3d)"><path fill="#00df82" d="M 254.792969 453.921875 L 281.976562 453.921875 L 281.976562 481.105469 L 254.792969 481.105469 Z M 254.792969 453.921875 " fill-opacity="1" fill-rule="nonzero"/></g></g><g clip-path="url(#55106d0b15)"><g clip-path="url(#e89d3f5c91)"><path fill="#00df82" d="M 412 436.269531 L 439.183594 436.269531 L 439.183594 463.453125 L 412 463.453125 Z M 412 436.269531 " fill-opacity="1" fill-rule="nonzero"/></g></g><g clip-path="url(#1bf7fb2b5f)"><g clip-path="url(#b00df4ec32)"><path fill="#00df82" d="M 421.878906 359.417969 L 442.761719 359.417969 L 442.761719 380.300781 L 421.878906 380.300781 Z M 421.878906 359.417969 " fill-opacity="1" fill-rule="nonzero"/></g></g><g clip-path="url(#12536beb3c)"><g clip-path="url(#c835f4b530)"><path fill="#00df82" d="M 369.203125 353.121094 L 396.386719 353.121094 L 396.386719 380.300781 L 369.203125 380.300781 Z M 369.203125 353.121094 " fill-opacity="1" fill-rule="nonzero"/></g></g><g clip-path="url(#b62524f910)"><g clip-path="url(#630981511f)"><path fill="#00df82" d="M 461.789062 341.609375 L 488.96875 341.609375 L 488.96875 368.789062 L 461.789062 368.789062 Z M 461.789062 341.609375 " fill-opacity="1" fill-rule="nonzero"/></g></g><g clip-path="url(#105389bbfa)"><g clip-path="url(#e095ced608)"><path fill="#00df82" d="M 360.070312 309.042969 L 388.859375 309.042969 L 388.859375 337.832031 L 360.070312 337.832031 Z M 360.070312 309.042969 " fill-opacity="1" fill-rule="nonzero"/></g></g><g clip-path="url(#a263023ca0)"><g clip-path="url(#c228d8c77d)"><path fill="#00df82" d="M 361.675781 405.460938 L 402.019531 405.460938 L 402.019531 445.800781 L 361.675781 445.800781 Z M 361.675781 405.460938 " fill-opacity="1" fill-rule="nonzero"/></g></g><g clip-path="url(#5dad48a644)"><g clip-path="url(#1902be083f)"><path fill="#00df82" d="M 288.757812 360.132812 L 329.101562 360.132812 L 329.101562 400.472656 L 288.757812 400.472656 Z M 288.757812 360.132812 " fill-opacity="1" fill-rule="nonzero"/></g></g><g clip-path="url(#729fa5d246)"><g clip-path="url(#f4372ccbd6)"><path fill="#00df82" d="M 437.195312 384.589844 L 477.535156 384.589844 L 477.535156 424.929688 L 437.195312 424.929688 Z M 437.195312 384.589844 " fill-opacity="1" fill-rule="nonzero"/></g></g><g clip-path="url(#0b2858ae6c)"><g clip-path="url(#cff8233047)"><path fill="#00df82" d="M 409.277344 309.042969 L 449.617188 309.042969 L 449.617188 349.382812 L 409.277344 349.382812 Z M 409.277344 309.042969 " fill-opacity="1" fill-rule="nonzero"/></g></g><g clip-path="url(#3920001103)"><g clip-path="url(#b835c1f28d)"><path fill="#00df82" d="M 377.921875 483.3125 L 432.320312 483.3125 L 432.320312 537.714844 L 377.921875 537.714844 Z M 377.921875 483.3125 " fill-opacity="1" fill-rule="nonzero"/></g></g><g clip-path="url(#a68dc02340)"><g clip-path="url(#1c039b8bc7)"><path fill="#00df82" d="M 453.695312 443.730469 L 508.09375 443.730469 L 508.09375 498.132812 L 453.695312 498.132812 Z M 453.695312 443.730469 " fill-opacity="1" fill-rule="nonzero"/></g></g><g clip-path="url(#e4157212c7)"><g clip-path="url(#77c93a32f1)"><path fill="#00df82" d="M 307.277344 443.730469 L 361.675781 443.730469 L 361.675781 498.132812 L 307.277344 498.132812 Z M 307.277344 443.730469 " fill-opacity="1" fill-rule="nonzero"/></g></g><g clip-path="url(#28c2f9cf02)"><g clip-path="url(#ae84f1e53d)"><path fill="#00df82" d="M 405.121094 387.507812 L 426.003906 387.507812 L 426.003906 408.390625 L 405.121094 408.390625 Z M 405.121094 387.507812 " fill-opacity="1" fill-rule="nonzero"/></g></g><g clip-path="url(#32ca85a7f4)"><g clip-path="url(#9cf3541caa)"><path fill="#00df82" d="M 340.792969 378.136719 L 361.675781 378.136719 L 361.675781 399.023438 L 340.792969 399.023438 Z M 340.792969 378.136719 " fill-opacity="1" fill-rule="nonzero"/></g></g><g clip-path="url(#3dc3db0590)"><g clip-path="url(#32a8b98d72)"><path fill="#00df82" d="M 319.148438 405.460938 L 340.03125 405.460938 L 340.03125 426.34375 L 319.148438 426.34375 Z M 319.148438 405.460938 " fill-opacity="1" fill-rule="nonzero"/></g></g><g clip-path="url(#ec3f39c37b)"><g clip-path="url(#2e5108e344)"><path fill="#00df82" d="M 335.203125 342.679688 L 356.085938 342.679688 L 356.085938 363.5625 L 335.203125 363.5625 Z M 335.203125 342.679688 " fill-opacity="1" fill-rule="nonzero"/></g></g><g clip-path="url(#0760ed94bd)"><g clip-path="url(#d03da707da)"><path fill="#00df82" d="M 489.246094 378.136719 L 510.128906 378.136719 L 510.128906 399.023438 L 489.246094 399.023438 Z M 489.246094 378.136719 " fill-opacity="1" fill-rule="nonzero"/></g></g><g clip-path="url(#53ff91aa6b)"><path fill="#ffffff" d="M 377.015625 314.871094 L 380.40625 314.871094 L 381.707031 312.925781 L 368.972656 312.925781 L 367.675781 314.871094 L 369.882812 314.871094 C 372.121094 314.871094 374.1875 315.042969 375.015625 316.914062 L 368.972656 316.914062 L 367.675781 318.859375 L 375.261719 318.859375 C 375.257812 318.863281 375.257812 318.867188 375.257812 318.871094 C 375.257812 320.269531 374.09375 322.417969 370.242188 322.417969 L 368.378906 322.417969 L 368.382812 324.234375 L 375.84375 333.535156 L 379.167969 333.535156 L 371.441406 323.914062 C 374.621094 323.742188 377.605469 321.972656 378.035156 318.859375 L 380.40625 318.859375 L 381.707031 316.914062 L 378 316.914062 C 377.851562 316.164062 377.523438 315.4375 377.015625 314.871094 Z M 377.015625 314.871094 " fill-opacity="1" fill-rule="nonzero"/></g><g clip-path="url(#0a3c607de1)"><path fill="#ffffff" d="M 384.046875 359.101562 L 387.441406 359.101562 L 388.738281 357.15625 L 376.003906 357.15625 L 374.707031 359.101562 L 376.914062 359.101562 C 379.15625 359.101562 381.222656 359.277344 382.046875 361.144531 L 376.003906 361.144531 L 374.707031 363.089844 L 382.289062 363.089844 C 382.289062 363.09375 382.289062 363.097656 382.289062 363.101562 C 382.289062 364.503906 381.125 366.648438 377.273438 366.648438 L 375.414062 366.644531 L 375.414062 368.46875 L 382.875 377.765625 L 386.199219 377.765625 L 378.476562 368.144531 C 381.65625 367.972656 384.636719 366.203125 385.066406 363.089844 L 387.441406 363.089844 L 388.738281 361.144531 L 385.03125 361.144531 C 384.882812 360.390625 384.558594 359.667969 384.046875 359.101562 Z M 384.046875 359.101562 " fill-opacity="1" fill-rule="nonzero"/></g><g clip-path="url(#c157a4cfd6)"><path fill="#ffffff" d="M 476.75 347.253906 L 480.140625 347.253906 L 481.441406 345.304688 L 468.707031 345.304688 L 467.410156 347.253906 L 469.621094 347.253906 C 471.859375 347.253906 473.925781 347.425781 474.75 349.292969 L 468.707031 349.292969 L 467.410156 351.238281 L 474.996094 351.238281 C 474.996094 351.246094 474.996094 351.25 474.996094 351.253906 C 474.996094 352.652344 473.828125 354.796875 469.980469 354.796875 L 468.113281 354.796875 L 468.117188 356.617188 L 475.578125 365.914062 L 478.902344 365.914062 L 471.179688 356.292969 C 474.355469 356.125 477.339844 354.351562 477.769531 351.238281 L 480.140625 351.238281 L 481.441406 349.292969 L 477.734375 349.292969 C 477.585938 348.542969 477.261719 347.816406 476.75 347.253906 Z M 476.75 347.253906 " fill-opacity="1" fill-rule="nonzero"/></g><g clip-path="url(#7cad7b5152)"><path fill="#ffffff" d="M 426.207031 441.476562 L 429.601562 441.476562 L 430.898438 439.53125 L 418.164062 439.53125 L 416.867188 441.476562 L 419.078125 441.476562 C 421.316406 441.476562 423.382812 441.648438 424.210938 443.515625 L 418.164062 443.515625 L 416.867188 445.464844 L 424.453125 445.464844 C 424.453125 445.46875 424.453125 445.472656 424.453125 445.476562 C 424.453125 446.875 423.285156 449.023438 419.433594 449.023438 L 417.574219 449.019531 L 417.574219 450.839844 L 425.035156 460.140625 L 428.359375 460.140625 L 420.636719 450.519531 C 423.816406 450.347656 426.796875 448.578125 427.226562 445.464844 L 429.601562 445.464844 L 430.898438 443.515625 L 427.191406 443.515625 C 427.042969 442.765625 426.71875 442.042969 426.207031 441.476562 Z M 426.207031 441.476562 " fill-opacity="1" fill-rule="nonzero"/></g><g clip-path="url(#55c54f137d)"><path fill="#ffffff" d="M 544.039062 458.765625 L 547.429688 458.765625 L 548.726562 456.820312 L 535.996094 456.820312 L 534.695312 458.765625 L 536.90625 458.765625 C 539.144531 458.765625 541.210938 458.9375 542.039062 460.804688 L 535.996094 460.804688 L 534.695312 462.753906 L 542.28125 462.753906 C 542.28125 462.757812 542.28125 462.761719 542.28125 462.765625 C 542.28125 464.164062 541.113281 466.308594 537.265625 466.308594 L 535.402344 466.308594 L 535.402344 468.128906 L 542.863281 477.429688 L 546.1875 477.429688 L 538.464844 467.808594 C 541.644531 467.636719 544.625 465.863281 545.054688 462.753906 L 547.429688 462.753906 L 548.726562 460.804688 L 545.023438 460.804688 C 544.871094 460.054688 544.546875 459.328125 544.039062 458.765625 Z M 544.039062 458.765625 " fill-opacity="1" fill-rule="nonzero"/></g><g clip-path="url(#e70a4a33d2)"><path fill="#ffffff" d="M 523.132812 417.621094 L 526.523438 417.621094 L 527.824219 415.675781 L 515.089844 415.675781 L 513.789062 417.621094 L 516 417.621094 C 518.238281 417.621094 520.304688 417.792969 521.132812 419.660156 L 515.089844 419.660156 L 513.789062 421.609375 L 521.375 421.609375 C 521.375 421.613281 521.375 421.617188 521.375 421.621094 C 521.375 423.023438 520.210938 425.167969 516.359375 425.167969 L 514.496094 425.164062 L 514.5 426.984375 L 521.960938 436.285156 L 525.28125 436.285156 L 517.558594 426.664062 C 520.738281 426.492188 523.722656 424.722656 524.152344 421.609375 L 526.523438 421.609375 L 527.824219 419.660156 L 524.117188 419.660156 C 523.96875 418.910156 523.640625 418.183594 523.132812 417.621094 Z M 523.132812 417.621094 " fill-opacity="1" fill-rule="nonzero"/></g><g clip-path="url(#5680f3046a)"><path fill="#ffffff" d="M 286.128906 417.621094 L 289.523438 417.621094 L 290.820312 415.675781 L 278.085938 415.675781 L 276.789062 417.621094 L 279 417.621094 C 281.238281 417.621094 283.304688 417.792969 284.128906 419.660156 L 278.085938 419.660156 L 276.789062 421.609375 L 284.375 421.609375 C 284.375 421.613281 284.375 421.617188 284.375 421.621094 C 284.375 423.023438 283.207031 425.167969 279.355469 425.167969 L 277.492188 425.164062 L 277.496094 426.984375 L 284.957031 436.285156 L 288.28125 436.285156 L 280.558594 426.664062 C 283.738281 426.492188 286.71875 424.722656 287.148438 421.609375 L 289.523438 421.609375 L 290.820312 419.660156 L 287.113281 419.660156 C 286.964844 418.910156 286.640625 418.183594 286.128906 417.621094 Z M 286.128906 417.621094 " fill-opacity="1" fill-rule="nonzero"/></g><g clip-path="url(#652a85647b)"><path fill="#ffffff" d="M 269.796875 458.765625 L 273.1875 458.765625 L 274.484375 456.820312 L 261.753906 456.820312 L 260.453125 458.765625 L 262.664062 458.765625 C 264.902344 458.765625 266.96875 458.9375 267.792969 460.804688 L 261.753906 460.804688 L 260.453125 462.753906 L 268.039062 462.753906 C 268.039062 462.757812 268.039062 462.761719 268.039062 462.765625 C 268.039062 464.164062 266.875 466.308594 263.023438 466.308594 L 261.160156 466.308594 L 261.160156 468.128906 L 268.621094 477.429688 L 271.945312 477.429688 L 264.222656 467.808594 C 267.402344 467.636719 270.382812 465.863281 270.8125 462.753906 L 273.1875 462.753906 L 274.484375 460.804688 L 270.777344 460.804688 C 270.628906 460.054688 270.304688 459.328125 269.796875 458.765625 Z M 269.796875 458.765625 " fill-opacity="1" fill-rule="nonzero"/></g><g clip-path="url(#0901ad2022)"><path fill="#ffffff" d="M 434.207031 315.757812 L 439.070312 315.757812 L 440.933594 312.925781 L 422.679688 312.925781 L 420.816406 315.757812 L 423.984375 315.757812 C 427.195312 315.757812 430.15625 316.007812 431.339844 318.726562 L 422.679688 318.726562 L 420.816406 321.558594 L 431.691406 321.558594 C 431.691406 321.5625 431.691406 321.570312 431.691406 321.574219 C 431.691406 323.609375 430.019531 326.734375 424.5 326.734375 L 421.828125 326.730469 L 421.832031 329.375 L 432.527344 342.90625 L 437.289062 342.90625 L 426.21875 328.910156 C 430.777344 328.660156 435.050781 326.082031 435.667969 321.558594 L 439.070312 321.558594 L 440.933594 318.726562 L 435.617188 318.726562 C 435.40625 317.632812 434.9375 316.578125 434.207031 315.757812 Z M 434.207031 315.757812 " fill-opacity="1" fill-rule="nonzero"/></g><g clip-path="url(#08234dbb56)"><path fill="#ffffff" d="M 460.570312 395.019531 L 465.433594 395.019531 L 467.296875 392.183594 L 449.042969 392.183594 L 447.179688 395.019531 L 450.347656 395.019531 C 453.558594 395.019531 456.519531 395.269531 457.703125 397.984375 L 449.042969 397.984375 L 447.179688 400.816406 L 458.054688 400.816406 C 458.054688 400.824219 458.054688 400.828125 458.054688 400.835938 C 458.054688 402.871094 456.382812 405.992188 450.863281 405.992188 L 448.191406 405.992188 L 448.195312 408.636719 L 458.890625 422.164062 L 463.652344 422.164062 L 452.582031 408.171875 C 457.140625 407.921875 461.414062 405.34375 462.03125 400.816406 L 465.433594 400.816406 L 467.296875 397.984375 L 461.980469 397.984375 C 461.765625 396.894531 461.300781 395.839844 460.570312 395.019531 Z M 460.570312 395.019531 " fill-opacity="1" fill-rule="nonzero"/></g><g clip-path="url(#e0fa83c67b)"><path fill="#ffffff" d="M 313.664062 368.816406 L 318.527344 368.816406 L 320.386719 365.984375 L 302.132812 365.984375 L 300.273438 368.816406 L 303.441406 368.816406 C 306.648438 368.816406 309.613281 369.070312 310.796875 371.785156 L 302.132812 371.785156 L 300.273438 374.617188 L 311.144531 374.617188 C 311.144531 374.625 311.144531 374.628906 311.144531 374.636719 C 311.144531 376.671875 309.472656 379.796875 303.957031 379.796875 L 301.285156 379.792969 L 301.289062 382.4375 L 311.984375 395.964844 L 316.746094 395.964844 L 305.675781 381.972656 C 310.234375 381.722656 314.507812 379.144531 315.121094 374.617188 L 318.527344 374.617188 L 320.386719 371.785156 L 315.074219 371.785156 C 314.859375 370.695312 314.394531 369.640625 313.664062 368.816406 Z M 313.664062 368.816406 " fill-opacity="1" fill-rule="nonzero"/></g><g clip-path="url(#f73da07d8e)"><path fill="#ffffff" d="M 385.015625 413.972656 L 389.878906 413.972656 L 391.738281 411.140625 L 373.488281 411.140625 L 371.625 413.972656 L 374.792969 413.972656 C 378.003906 413.972656 380.964844 414.222656 382.148438 416.9375 L 373.488281 416.9375 L 371.625 419.769531 L 382.496094 419.769531 C 382.496094 419.777344 382.496094 419.785156 382.496094 419.789062 C 382.496094 421.824219 380.828125 424.945312 375.308594 424.945312 L 372.636719 424.945312 L 372.640625 427.589844 L 383.335938 441.117188 L 388.097656 441.117188 L 377.027344 427.121094 C 381.585938 426.875 385.859375 424.296875 386.472656 419.769531 L 389.878906 419.769531 L 391.738281 416.9375 L 386.425781 416.9375 C 386.210938 415.847656 385.746094 414.789062 385.015625 413.972656 Z M 385.015625 413.972656 " fill-opacity="1" fill-rule="nonzero"/></g><g clip-path="url(#59a9d7cbcb)"><path fill="#ffffff" d="M 486.371094 454.03125 L 493.609375 454.03125 L 496.378906 449.871094 L 469.210938 449.871094 L 466.441406 454.03125 L 471.15625 454.03125 C 475.933594 454.03125 480.34375 454.398438 482.105469 458.386719 L 469.210938 458.386719 L 466.441406 462.550781 L 482.625 462.550781 C 482.625 462.558594 482.625 462.566406 482.625 462.578125 C 482.625 465.566406 480.136719 470.152344 471.921875 470.152344 L 467.945312 470.148438 L 467.953125 474.035156 L 483.871094 493.902344 L 490.957031 493.902344 L 474.484375 473.347656 C 481.265625 472.980469 487.628906 469.195312 488.542969 462.550781 L 493.609375 462.550781 L 496.378906 458.386719 L 488.46875 458.386719 C 488.152344 456.785156 487.460938 455.234375 486.371094 454.03125 Z M 486.371094 454.03125 " fill-opacity="1" fill-rule="nonzero"/></g><g clip-path="url(#a789fb1c7e)"><path fill="#ffffff" d="M 411.792969 494.070312 L 419.03125 494.070312 L 421.800781 489.910156 L 394.632812 489.910156 L 391.863281 494.070312 L 396.578125 494.070312 C 401.355469 494.070312 405.761719 494.4375 407.527344 498.425781 L 394.632812 498.425781 L 391.863281 502.585938 L 408.046875 502.585938 C 408.046875 502.597656 408.046875 502.605469 408.046875 502.613281 C 408.046875 505.605469 405.558594 510.191406 397.34375 510.191406 L 393.371094 510.183594 L 393.375 514.074219 L 409.292969 533.941406 L 416.382812 533.941406 L 399.902344 513.386719 C 406.6875 513.019531 413.046875 509.234375 413.964844 502.585938 L 419.03125 502.585938 L 421.800781 498.425781 L 413.890625 498.425781 C 413.570312 496.824219 412.878906 495.273438 411.792969 494.070312 Z M 411.792969 494.070312 " fill-opacity="1" fill-rule="nonzero"/></g><g clip-path="url(#2031ca7f4a)"><path fill="#ffffff" d="M 337.210938 454.03125 L 344.449219 454.03125 L 347.21875 449.871094 L 320.050781 449.871094 L 317.28125 454.03125 L 321.996094 454.03125 C 326.773438 454.03125 331.179688 454.398438 332.945312 458.386719 L 320.050781 458.386719 L 317.28125 462.550781 L 333.464844 462.550781 C 333.464844 462.558594 333.464844 462.566406 333.464844 462.578125 C 333.464844 465.566406 330.976562 470.152344 322.761719 470.152344 L 318.789062 470.148438 L 318.792969 474.035156 L 334.710938 493.902344 L 341.800781 493.902344 L 325.324219 473.347656 C 332.105469 472.980469 338.46875 469.195312 339.382812 462.550781 L 344.449219 462.550781 L 347.21875 458.386719 L 339.308594 458.386719 C 338.992188 456.785156 338.296875 455.234375 337.210938 454.03125 Z M 337.210938 454.03125 " fill-opacity="1" fill-rule="nonzero"/></g><g clip-path="url(#b916587a50)"><path fill="#ffffff" d="M 345.78125 347.769531 L 347.925781 347.769531 L 348.75 346.574219 L 340.6875 346.574219 L 339.863281 347.769531 L 341.265625 347.769531 C 342.679688 347.769531 343.992188 347.875 344.515625 349.023438 L 340.6875 349.023438 L 339.863281 350.21875 L 344.667969 350.21875 C 344.667969 350.21875 344.667969 350.222656 344.667969 350.226562 C 344.667969 351.085938 343.929688 352.402344 341.492188 352.402344 L 340.3125 352.398438 L 340.3125 353.515625 L 345.035156 359.222656 L 347.140625 359.222656 L 342.25 353.320312 C 344.265625 353.214844 346.152344 352.125 346.425781 350.21875 L 347.925781 350.21875 L 348.75 349.023438 L 346.402344 349.023438 C 346.308594 348.5625 346.101562 348.117188 345.78125 347.769531 Z M 345.78125 347.769531 " fill-opacity="1" fill-rule="nonzero"/></g><g clip-path="url(#3173a7804b)"><path fill="#ffffff" d="M 353.277344 384.09375 L 355.421875 384.09375 L 356.246094 382.898438 L 348.179688 382.898438 L 347.359375 384.09375 L 348.757812 384.09375 C 350.175781 384.09375 351.484375 384.199219 352.007812 385.34375 L 348.179688 385.34375 L 347.359375 386.539062 L 352.164062 386.539062 C 352.164062 386.542969 352.164062 386.542969 352.164062 386.546875 C 352.164062 387.40625 351.425781 388.726562 348.984375 388.726562 L 347.804688 388.722656 L 347.808594 389.839844 L 352.53125 395.546875 L 354.636719 395.546875 L 349.746094 389.640625 C 351.757812 389.535156 353.644531 388.449219 353.917969 386.539062 L 355.421875 386.539062 L 356.246094 385.34375 L 353.898438 385.34375 C 353.800781 384.886719 353.597656 384.4375 353.277344 384.09375 Z M 353.277344 384.09375 " fill-opacity="1" fill-rule="nonzero"/></g><g clip-path="url(#6c799ec3cf)"><path fill="#ffffff" d="M 331.144531 410.675781 L 333.292969 410.675781 L 334.113281 409.480469 L 326.050781 409.480469 L 325.230469 410.675781 L 326.628906 410.675781 C 328.046875 410.675781 329.355469 410.78125 329.878906 411.925781 L 326.050781 411.925781 L 325.230469 413.121094 L 330.035156 413.121094 C 330.035156 413.125 330.035156 413.128906 330.035156 413.128906 C 330.035156 413.988281 329.296875 415.304688 326.859375 415.304688 L 325.675781 415.304688 L 325.679688 416.421875 L 330.402344 422.128906 L 332.507812 422.128906 L 327.617188 416.222656 C 329.628906 416.121094 331.519531 415.03125 331.789062 413.121094 L 333.292969 413.121094 L 334.113281 411.925781 L 331.769531 411.925781 C 331.671875 411.46875 331.46875 411.023438 331.144531 410.675781 Z M 331.144531 410.675781 " fill-opacity="1" fill-rule="nonzero"/></g><g clip-path="url(#63ae42cda5)"><path fill="#ffffff" d="M 417.117188 393.382812 L 419.265625 393.382812 L 420.085938 392.183594 L 412.023438 392.183594 L 411.203125 393.382812 L 412.601562 393.382812 C 414.019531 393.382812 415.328125 393.488281 415.851562 394.632812 L 412.023438 394.632812 L 411.203125 395.828125 L 416.007812 395.828125 C 416.007812 395.832031 416.007812 395.832031 416.007812 395.835938 C 416.007812 396.695312 415.269531 398.011719 412.832031 398.011719 L 411.648438 398.007812 L 411.652344 399.125 L 416.375 404.832031 L 418.480469 404.832031 L 413.589844 398.929688 C 415.601562 398.824219 417.492188 397.738281 417.761719 395.828125 L 419.265625 395.828125 L 420.085938 394.632812 L 417.742188 394.632812 C 417.644531 394.171875 417.441406 393.726562 417.117188 393.382812 Z M 417.117188 393.382812 " fill-opacity="1" fill-rule="nonzero"/></g><g clip-path="url(#55394b003d)"><path fill="#ffffff" d="M 503.597656 384.09375 L 505.746094 384.09375 L 506.570312 382.898438 L 498.507812 382.898438 L 497.683594 384.09375 L 499.082031 384.09375 C 500.5 384.09375 501.808594 384.199219 502.332031 385.34375 L 498.507812 385.34375 L 497.683594 386.539062 L 502.484375 386.539062 C 502.484375 386.542969 502.484375 386.542969 502.484375 386.546875 C 502.484375 387.40625 501.75 388.726562 499.3125 388.726562 L 498.128906 388.722656 L 498.132812 389.839844 L 502.855469 395.546875 L 504.960938 395.546875 L 500.070312 389.640625 C 502.082031 389.535156 503.972656 388.449219 504.242188 386.539062 L 505.746094 386.539062 L 506.570312 385.34375 L 504.222656 385.34375 C 504.128906 384.886719 503.921875 384.4375 503.597656 384.09375 Z M 503.597656 384.09375 " fill-opacity="1" fill-rule="nonzero"/></g><g clip-path="url(#29d8686c25)"><path fill="#ffffff" d="M 433.875 364.632812 L 436.023438 364.632812 L 436.847656 363.4375 L 428.785156 363.4375 L 427.960938 364.632812 L 429.359375 364.632812 C 430.777344 364.632812 432.085938 364.738281 432.609375 365.886719 L 428.785156 365.886719 L 427.960938 367.078125 L 432.765625 367.078125 C 432.765625 367.082031 432.765625 367.085938 432.765625 367.085938 C 432.765625 367.945312 432.027344 369.261719 429.589844 369.261719 L 428.410156 369.261719 L 428.410156 370.378906 L 433.136719 376.085938 L 435.238281 376.085938 L 430.347656 370.183594 C 432.363281 370.078125 434.25 368.988281 434.519531 367.078125 L 436.023438 367.078125 L 436.847656 365.886719 L 434.5 365.886719 C 434.40625 365.425781 434.199219 364.980469 433.875 364.632812 Z M 433.875 364.632812 " fill-opacity="1" fill-rule="nonzero"/></g></svg>